<?xml version="1.0" encoding="UTF-8"?>
<!DOCTYPE svg PUBLIC "-//W3C//DTD SVG 1.1//EN" "http://www.w3.org/Graphics/SVG/1.1/DTD/svg11.dtd">
<svg width="246mm" height="158mm" viewBox="0 0 24600 15800" version="1.1" xmlns="http://www.w3.org/2000/svg" xmlns:xlink="http://www.w3.org/1999/xlink" stroke-width="28.222" stroke-linejoin="round" xml:space="preserve">
 <path fill="rgb(32,42,78)" stroke="none" d="M 12293,15810 L -13,15810 -13,-13 24598,-13 24598,15810 12293,15810 Z"/>
 <path fill="none" stroke="rgb(179,179,179)" stroke-linejoin="round" d="M 11606,14847 L 1471,14847 1471,1734 21741,1734 21741,14847 11606,14847 Z"/>
 <path fill="none" stroke="rgb(179,179,179)" stroke-linejoin="round" d="M 1471,1733 L 1471,14846"/>
 <path fill="none" stroke="rgb(179,179,179)" stroke-linejoin="round" d="M 2822,1733 L 2822,14846"/>
 <path fill="none" stroke="rgb(179,179,179)" stroke-linejoin="round" d="M 4173,1733 L 4173,14846"/>
 <path fill="none" stroke="rgb(179,179,179)" stroke-linejoin="round" d="M 5525,1733 L 5525,14846"/>
 <path fill="none" stroke="rgb(179,179,179)" stroke-linejoin="round" d="M 6876,1733 L 6876,14846"/>
 <path fill="none" stroke="rgb(179,179,179)" stroke-linejoin="round" d="M 8228,1733 L 8228,14846"/>
 <path fill="none" stroke="rgb(179,179,179)" stroke-linejoin="round" d="M 9579,1733 L 9579,14846"/>
 <path fill="none" stroke="rgb(179,179,179)" stroke-linejoin="round" d="M 10930,1733 L 10930,14846"/>
 <path fill="none" stroke="rgb(179,179,179)" stroke-linejoin="round" d="M 12282,1733 L 12282,14846"/>
 <path fill="none" stroke="rgb(179,179,179)" stroke-linejoin="round" d="M 13632,1733 L 13632,14846"/>
 <path fill="none" stroke="rgb(179,179,179)" stroke-linejoin="round" d="M 14984,1733 L 14984,14846"/>
 <path fill="none" stroke="rgb(179,179,179)" stroke-linejoin="round" d="M 16335,1733 L 16335,14846"/>
 <path fill="none" stroke="rgb(179,179,179)" stroke-linejoin="round" d="M 17686,1733 L 17686,14846"/>
 <path fill="none" stroke="rgb(179,179,179)" stroke-linejoin="round" d="M 19038,1733 L 19038,14846"/>
 <path fill="none" stroke="rgb(179,179,179)" stroke-linejoin="round" d="M 20389,1733 L 20389,14846"/>
 <path fill="none" stroke="rgb(179,179,179)" stroke-linejoin="round" d="M 21741,1733 L 21741,14846"/>
 <path fill="none" stroke="rgb(179,179,179)" stroke-linejoin="round" d="M 21741,14846 L 1471,14846"/>
 <path fill="none" stroke="rgb(179,179,179)" stroke-linejoin="round" d="M 21741,13534 L 1471,13534"/>
 <path fill="none" stroke="rgb(179,179,179)" stroke-linejoin="round" d="M 21741,12223 L 1471,12223"/>
 <path fill="none" stroke="rgb(179,179,179)" stroke-linejoin="round" d="M 21741,10911 L 1471,10911"/>
 <path fill="none" stroke="rgb(179,179,179)" stroke-linejoin="round" d="M 21741,9600 L 1471,9600"/>
 <path fill="none" stroke="rgb(179,179,179)" stroke-linejoin="round" d="M 21741,8289 L 1471,8289"/>
 <path fill="none" stroke="rgb(179,179,179)" stroke-linejoin="round" d="M 21741,6978 L 1471,6978"/>
 <path fill="none" stroke="rgb(179,179,179)" stroke-linejoin="round" d="M 21741,5667 L 1471,5667"/>
 <path fill="none" stroke="rgb(179,179,179)" stroke-linejoin="round" d="M 21741,4355 L 1471,4355"/>
 <path fill="none" stroke="rgb(179,179,179)" stroke-linejoin="round" d="M 21741,3044 L 1471,3044"/>
 <path fill="none" stroke="rgb(179,179,179)" stroke-linejoin="round" d="M 21741,1733 L 1471,1733"/>
 <path fill="none" stroke="rgb(179,179,179)" stroke-linejoin="round" d="M 1471,14996 L 1471,14846"/>
 <path fill="none" stroke="rgb(179,179,179)" stroke-linejoin="round" d="M 1471,14996 L 1471,14846"/>
 <path fill="none" stroke="rgb(179,179,179)" stroke-linejoin="round" d="M 2822,14996 L 2822,14846"/>
 <path fill="none" stroke="rgb(179,179,179)" stroke-linejoin="round" d="M 2822,14996 L 2822,14846"/>
 <path fill="none" stroke="rgb(179,179,179)" stroke-linejoin="round" d="M 4173,14996 L 4173,14846"/>
 <path fill="none" stroke="rgb(179,179,179)" stroke-linejoin="round" d="M 4173,14996 L 4173,14846"/>
 <path fill="none" stroke="rgb(179,179,179)" stroke-linejoin="round" d="M 5525,14996 L 5525,14846"/>
 <path fill="none" stroke="rgb(179,179,179)" stroke-linejoin="round" d="M 5525,14996 L 5525,14846"/>
 <path fill="none" stroke="rgb(179,179,179)" stroke-linejoin="round" d="M 6876,14996 L 6876,14846"/>
 <path fill="none" stroke="rgb(179,179,179)" stroke-linejoin="round" d="M 6876,14996 L 6876,14846"/>
 <path fill="none" stroke="rgb(179,179,179)" stroke-linejoin="round" d="M 8228,14996 L 8228,14846"/>
 <path fill="none" stroke="rgb(179,179,179)" stroke-linejoin="round" d="M 8228,14996 L 8228,14846"/>
 <path fill="none" stroke="rgb(179,179,179)" stroke-linejoin="round" d="M 9579,14996 L 9579,14846"/>
 <path fill="none" stroke="rgb(179,179,179)" stroke-linejoin="round" d="M 9579,14996 L 9579,14846"/>
 <path fill="none" stroke="rgb(179,179,179)" stroke-linejoin="round" d="M 10930,14996 L 10930,14846"/>
 <path fill="none" stroke="rgb(179,179,179)" stroke-linejoin="round" d="M 10930,14996 L 10930,14846"/>
 <path fill="none" stroke="rgb(179,179,179)" stroke-linejoin="round" d="M 12282,14996 L 12282,14846"/>
 <path fill="none" stroke="rgb(179,179,179)" stroke-linejoin="round" d="M 12282,14996 L 12282,14846"/>
 <path fill="none" stroke="rgb(179,179,179)" stroke-linejoin="round" d="M 13632,14996 L 13632,14846"/>
 <path fill="none" stroke="rgb(179,179,179)" stroke-linejoin="round" d="M 13632,14996 L 13632,14846"/>
 <path fill="none" stroke="rgb(179,179,179)" stroke-linejoin="round" d="M 14984,14996 L 14984,14846"/>
 <path fill="none" stroke="rgb(179,179,179)" stroke-linejoin="round" d="M 14984,14996 L 14984,14846"/>
 <path fill="none" stroke="rgb(179,179,179)" stroke-linejoin="round" d="M 16335,14996 L 16335,14846"/>
 <path fill="none" stroke="rgb(179,179,179)" stroke-linejoin="round" d="M 16335,14996 L 16335,14846"/>
 <path fill="none" stroke="rgb(179,179,179)" stroke-linejoin="round" d="M 17686,14996 L 17686,14846"/>
 <path fill="none" stroke="rgb(179,179,179)" stroke-linejoin="round" d="M 17686,14996 L 17686,14846"/>
 <path fill="none" stroke="rgb(179,179,179)" stroke-linejoin="round" d="M 19038,14996 L 19038,14846"/>
 <path fill="none" stroke="rgb(179,179,179)" stroke-linejoin="round" d="M 19038,14996 L 19038,14846"/>
 <path fill="none" stroke="rgb(179,179,179)" stroke-linejoin="round" d="M 20389,14996 L 20389,14846"/>
 <path fill="none" stroke="rgb(179,179,179)" stroke-linejoin="round" d="M 20389,14996 L 20389,14846"/>
 <path fill="none" stroke="rgb(179,179,179)" stroke-linejoin="round" d="M 21741,14996 L 21741,14846"/>
 <path fill="none" stroke="rgb(179,179,179)" stroke-linejoin="round" d="M 21741,14996 L 21741,14846"/>
 <path fill="none" stroke="rgb(179,179,179)" stroke-linejoin="round" d="M 1471,14846 L 21741,14846"/>
 <path fill="none" stroke="rgb(179,179,179)" stroke-linejoin="round" d="M 1321,14846 L 1471,14846"/>
 <path fill="none" stroke="rgb(179,179,179)" stroke-linejoin="round" d="M 1321,14846 L 1471,14846"/>
 <path fill="none" stroke="rgb(179,179,179)" stroke-linejoin="round" d="M 1321,13534 L 1471,13534"/>
 <path fill="none" stroke="rgb(179,179,179)" stroke-linejoin="round" d="M 1321,13534 L 1471,13534"/>
 <path fill="none" stroke="rgb(179,179,179)" stroke-linejoin="round" d="M 1321,12223 L 1471,12223"/>
 <path fill="none" stroke="rgb(179,179,179)" stroke-linejoin="round" d="M 1321,12223 L 1471,12223"/>
 <path fill="none" stroke="rgb(179,179,179)" stroke-linejoin="round" d="M 1321,10911 L 1471,10911"/>
 <path fill="none" stroke="rgb(179,179,179)" stroke-linejoin="round" d="M 1321,10911 L 1471,10911"/>
 <path fill="none" stroke="rgb(179,179,179)" stroke-linejoin="round" d="M 1321,9600 L 1471,9600"/>
 <path fill="none" stroke="rgb(179,179,179)" stroke-linejoin="round" d="M 1321,9600 L 1471,9600"/>
 <path fill="none" stroke="rgb(179,179,179)" stroke-linejoin="round" d="M 1321,8289 L 1471,8289"/>
 <path fill="none" stroke="rgb(179,179,179)" stroke-linejoin="round" d="M 1321,8289 L 1471,8289"/>
 <path fill="none" stroke="rgb(179,179,179)" stroke-linejoin="round" d="M 1321,6978 L 1471,6978"/>
 <path fill="none" stroke="rgb(179,179,179)" stroke-linejoin="round" d="M 1321,6978 L 1471,6978"/>
 <path fill="none" stroke="rgb(179,179,179)" stroke-linejoin="round" d="M 1321,5667 L 1471,5667"/>
 <path fill="none" stroke="rgb(179,179,179)" stroke-linejoin="round" d="M 1321,5667 L 1471,5667"/>
 <path fill="none" stroke="rgb(179,179,179)" stroke-linejoin="round" d="M 1321,4355 L 1471,4355"/>
 <path fill="none" stroke="rgb(179,179,179)" stroke-linejoin="round" d="M 1321,4355 L 1471,4355"/>
 <path fill="none" stroke="rgb(179,179,179)" stroke-linejoin="round" d="M 1321,3044 L 1471,3044"/>
 <path fill="none" stroke="rgb(179,179,179)" stroke-linejoin="round" d="M 1321,3044 L 1471,3044"/>
 <path fill="none" stroke="rgb(179,179,179)" stroke-linejoin="round" d="M 1321,1733 L 1471,1733"/>
 <path fill="none" stroke="rgb(179,179,179)" stroke-linejoin="round" d="M 1321,1733 L 1471,1733"/>
 <path fill="none" stroke="rgb(179,179,179)" stroke-linejoin="round" d="M 1471,14846 L 1471,1733"/>
 <path fill="none" stroke="rgb(255,118,0)" stroke-width="80" stroke-linejoin="round" d="M 1471,14819 L 1606,14819 1741,14817 1876,14817 2011,14814 2146,14814 2281,14811 2416,14811 2552,14809 2687,14809 2822,14806 2957,14806 3092,14804 3227,14801 3362,14801 3498,14798 3633,14796 3768,14796 3903,14793 4038,14790 4173,14788 4308,14785 4444,14783 4579,14780 4714,14777 4849,14775 4984,14772 5119,14769 5254,14767 5390,14764 5525,14762 5660,14756 5795,14754 5930,14751 6065,14746 6200,14743 6336,14738 6471,14733 6606,14730 6741,14725 6876,14720 7011,14714 7146,14709 7282,14704 7417,14699 7552,14693 7687,14686 7822,14680 7957,14672 8092,14667 8228,14659 8363,14651 8498,14644 8633,14636 8768,14628 8903,14620 9038,14609 9173,14599 9309,14591 9444,14581 9579,14570 9714,14560 9849,14547 9984,14536 10119,14523 10255,14510 10390,14497 10525,14484 10660,14468 10795,14452 10930,14436 11065,14421 11201,14405 11336,14387 11471,14368 11606,14350 11741,14329 11876,14308 12011,14287 12147,14263 12282,14242 12416,14216 12551,14192 12686,14166 12821,14137 12956,14111 13092,14080 13227,14051 13362,14019 13497,13985 13632,13951 13767,13914 13902,13878 14038,13838 14173,13799 14308,13757 14443,13712 14578,13668 14713,13621 14848,13571 14984,13521 15119,13469 15254,13413 15389,13356 15524,13295 15659,13235 15794,13170 15929,13101 16065,13033 16200,12960 16335,12884 16470,12805 16605,12724 16740,12640 16875,12551 17011,12459 17146,12364 17281,12265 17416,12162 17551,12055 17686,11942 17821,11827 17957,11706 18092,11580 18227,11449 18362,11315 18497,11174 18632,11027 18767,10875 18903,10715 19038,10549 19173,10376 19308,10198 19443,10012 19578,9820 19713,9618 19849,9408 19984,9191 20119,8965 20254,8732 20389,8485 20524,8231 20659,7966 20795,7692 20930,7406 21065,7109 21200,6800 21335,6477 21470,6144 21605,5795 21741,5433"/>
 <path fill="none" stroke="rgb(255,85,84)" stroke-width="80" stroke-linejoin="round" d="M 1471,14819 L 1606,14817 1741,14817 1876,14814 2011,14814 2146,14811 2281,14811 2416,14809 2552,14806 2687,14804 2822,14804 2957,14801 3092,14798 3227,14796 3362,14793 3498,14790 3633,14788 3768,14785 3903,14783 4038,14780 4173,14775 4308,14772 4444,14769 4579,14764 4714,14762 4849,14756 4984,14751 5119,14748 5254,14743 5390,14738 5525,14733 5660,14727 5795,14720 5930,14714 6065,14706 6200,14701 6336,14693 6471,14686 6606,14678 6741,14670 6876,14662 7011,14651 7146,14641 7282,14633 7417,14620 7552,14609 7687,14599 7822,14586 7957,14573 8092,14560 8228,14544 8363,14531 8498,14515 8633,14497 8768,14481 8903,14463 9038,14442 9173,14423 9309,14402 9444,14379 9579,14355 9714,14331 9849,14305 9984,14279 10119,14250 10255,14221 10390,14190 10525,14156 10660,14122 10795,14085 10930,14048 11065,14009 11201,13967 11336,13922 11471,13875 11606,13828 11741,13775 11876,13723 12011,13665 12147,13608 12282,13545 12416,13482 12551,13413 12686,13340 12821,13267 12956,13185 13092,13104 13227,13017 13362,12926 13497,12829 13632,12729 13767,12621 13902,12511 14038,12393 14173,12273 14308,12144 14443,12008 14578,11866 14713,11716 14848,11562 14984,11397 15119,11223 15254,11042 15389,10854 15524,10654 15659,10444 15794,10224 15929,9993 16065,9749 16200,9495 16335,9227 16470,8947 16605,8650 16740,8341 16875,8016 17011,7676 17146,7316 17281,6941 17416,6545 17551,6131 17686,5696 17821,5237 17957,4757 18092,4253 18227,3723 18362,3167 18497,2582 18632,1969 18682,1733"/>
 <path fill="none" stroke="rgb(253,75,138)" stroke-width="80" stroke-linejoin="round" d="M 1471,14636 L 1606,14604 1741,14567 1876,14526 2011,14478 2146,14423 2281,14360 2416,14287 2552,14203 2687,14108 2822,13996 2957,13870 3092,13723 3227,13555 3362,13361 3498,13138 3633,12881 3768,12587 3903,12249 4038,11858 4173,11412 4308,10896 4444,10303 4579,9624 4714,8839 4849,7937 4984,6902 5119,5711 5254,4342 5390,2766 5467,1733"/>
 <path fill="none" stroke="rgb(213,91,179)" stroke-width="80" stroke-linejoin="round" d="M 1471,14636 L 1606,14602 1741,14562 1876,14518 2011,14465 2146,14405 2281,14334 2416,14253 2552,14158 2687,14048 2822,13920 2957,13773 3092,13600 3227,13400 3362,13170 3498,12902 3633,12590 3768,12231 3903,11811 4038,11326 4173,10762 4308,10109 4444,9351 4579,8472 4714,7453 4849,6270 4984,4898 5119,3306 5234,1733"/>
 <path fill="none" stroke="rgb(156,109,201)" stroke-width="80" stroke-linejoin="round" d="M 1471,14583 L 1606,14541 1741,14491 1876,14436 2011,14371 2146,14295 2281,14206 2416,14103 2552,13985 2687,13849 2822,13689 2957,13503 3092,13288 3227,13038 3362,12750 3498,12414 3633,12026 3768,11575 3903,11053 4038,10444 4173,9742 4308,8926 4444,7976 4579,6878 4714,5604 4849,4127 4984,2412 5030,1733"/>
 <path fill="none" stroke="rgb(38,69,197)" stroke-width="80" stroke-linejoin="round" d="M 1471,14531 L 1606,14478 1741,14415 1876,14342 2011,14255 2146,14156 2281,14038 2416,13901 2552,13741 2687,13552 2822,13332 2957,13075 3092,12773 3227,12422 3362,12010 3498,11528 3633,10964 3768,10305 3903,9534 4038,8629 4173,7573 4308,6338 4444,4890 4579,3199 4679,1733"/>
 <path fill="none" stroke="rgb(0,123,180)" stroke-width="80" stroke-linejoin="round" d="M 1471,14452 L 1606,14381 1741,14297 1876,14200 2011,14082 2146,13946 2281,13783 2416,13592 2552,13366 2687,13101 2822,12787 2957,12417 3092,11979 3227,11462 3362,10854 3498,10135 3633,9288 3768,8286 3903,7107 4038,5714 4173,4069 4308,2129 4332,1733"/>
 <text class="SVGTextShape"><tspan class="TextParagraph"><tspan class="TextPosition" x="1378" y="15414"><tspan font-family="Liberation Sans, sans-serif" font-size="353px" font-weight="400" fill="rgb(255,255,255)" stroke="none" style="white-space: pre">0</tspan></tspan></tspan></text>
 <text class="SVGTextShape"><tspan class="TextParagraph"><tspan class="TextPosition" x="2637" y="15414"><tspan font-family="Liberation Sans, sans-serif" font-size="353px" font-weight="400" fill="rgb(255,255,255)" stroke="none" style="white-space: pre">10</tspan></tspan></tspan></text>
 <text class="SVGTextShape"><tspan class="TextParagraph"><tspan class="TextPosition" x="3988" y="15414"><tspan font-family="Liberation Sans, sans-serif" font-size="353px" font-weight="400" fill="rgb(255,255,255)" stroke="none" style="white-space: pre">20</tspan></tspan></tspan></text>
 <text class="SVGTextShape"><tspan class="TextParagraph"><tspan class="TextPosition" x="5340" y="15414"><tspan font-family="Liberation Sans, sans-serif" font-size="353px" font-weight="400" fill="rgb(255,255,255)" stroke="none" style="white-space: pre">30</tspan></tspan></tspan></text>
 <text class="SVGTextShape"><tspan class="TextParagraph"><tspan class="TextPosition" x="6691" y="15414"><tspan font-family="Liberation Sans, sans-serif" font-size="353px" font-weight="400" fill="rgb(255,255,255)" stroke="none" style="white-space: pre">40</tspan></tspan></tspan></text>
 <text class="SVGTextShape"><tspan class="TextParagraph"><tspan class="TextPosition" x="8043" y="15414"><tspan font-family="Liberation Sans, sans-serif" font-size="353px" font-weight="400" fill="rgb(255,255,255)" stroke="none" style="white-space: pre">50</tspan></tspan></tspan></text>
 <text class="SVGTextShape"><tspan class="TextParagraph"><tspan class="TextPosition" x="9394" y="15414"><tspan font-family="Liberation Sans, sans-serif" font-size="353px" font-weight="400" fill="rgb(255,255,255)" stroke="none" style="white-space: pre">60</tspan></tspan></tspan></text>
 <text class="SVGTextShape"><tspan class="TextParagraph"><tspan class="TextPosition" x="10745" y="15414"><tspan font-family="Liberation Sans, sans-serif" font-size="353px" font-weight="400" fill="rgb(255,255,255)" stroke="none" style="white-space: pre">70</tspan></tspan></tspan></text>
 <text class="SVGTextShape"><tspan class="TextParagraph"><tspan class="TextPosition" x="12097" y="15414"><tspan font-family="Liberation Sans, sans-serif" font-size="353px" font-weight="400" fill="rgb(255,255,255)" stroke="none" style="white-space: pre">80</tspan></tspan></tspan></text>
 <text class="SVGTextShape"><tspan class="TextParagraph"><tspan class="TextPosition" x="13447" y="15414"><tspan font-family="Liberation Sans, sans-serif" font-size="353px" font-weight="400" fill="rgb(255,255,255)" stroke="none" style="white-space: pre">90</tspan></tspan></tspan></text>
 <text class="SVGTextShape"><tspan class="TextParagraph"><tspan class="TextPosition" x="14706" y="15414"><tspan font-family="Liberation Sans, sans-serif" font-size="353px" font-weight="400" fill="rgb(255,255,255)" stroke="none" style="white-space: pre">100</tspan></tspan></tspan></text>
 <text class="SVGTextShape"><tspan class="TextParagraph"><tspan class="TextPosition" x="16057" y="15414"><tspan font-family="Liberation Sans, sans-serif" font-size="353px" font-weight="400" fill="rgb(255,255,255)" stroke="none" style="white-space: pre">110</tspan></tspan></tspan></text>
 <text class="SVGTextShape"><tspan class="TextParagraph"><tspan class="TextPosition" x="17408" y="15414"><tspan font-family="Liberation Sans, sans-serif" font-size="353px" font-weight="400" fill="rgb(255,255,255)" stroke="none" style="white-space: pre">120</tspan></tspan></tspan></text>
 <text class="SVGTextShape"><tspan class="TextParagraph"><tspan class="TextPosition" x="18760" y="15414"><tspan font-family="Liberation Sans, sans-serif" font-size="353px" font-weight="400" fill="rgb(255,255,255)" stroke="none" style="white-space: pre">130</tspan></tspan></tspan></text>
 <text class="SVGTextShape"><tspan class="TextParagraph"><tspan class="TextPosition" x="20111" y="15414"><tspan font-family="Liberation Sans, sans-serif" font-size="353px" font-weight="400" fill="rgb(255,255,255)" stroke="none" style="white-space: pre">140</tspan></tspan></tspan></text>
 <text class="SVGTextShape"><tspan class="TextParagraph"><tspan class="TextPosition" x="21463" y="15414"><tspan font-family="Liberation Sans, sans-serif" font-size="353px" font-weight="400" fill="rgb(255,255,255)" stroke="none" style="white-space: pre">150</tspan></tspan></tspan></text>
 <text class="SVGTextShape"><tspan class="TextParagraph"><tspan class="TextPosition" x="877" y="14966"><tspan font-family="Liberation Sans, sans-serif" font-size="353px" font-weight="400" fill="rgb(255,255,255)" stroke="none" style="white-space: pre">0k</tspan></tspan></tspan></text>
 <text class="SVGTextShape"><tspan class="TextParagraph"><tspan class="TextPosition" x="692" y="13654"><tspan font-family="Liberation Sans, sans-serif" font-size="353px" font-weight="400" fill="rgb(255,255,255)" stroke="none" style="white-space: pre">50k</tspan></tspan></tspan></text>
 <text class="SVGTextShape"><tspan class="TextParagraph"><tspan class="TextPosition" x="480" y="12343"><tspan font-family="Liberation Sans, sans-serif" font-size="353px" font-weight="400" fill="rgb(255,255,255)" stroke="none" style="white-space: pre">100k</tspan></tspan></tspan></text>
 <text class="SVGTextShape"><tspan class="TextParagraph"><tspan class="TextPosition" x="480" y="11031"><tspan font-family="Liberation Sans, sans-serif" font-size="353px" font-weight="400" fill="rgb(255,255,255)" stroke="none" style="white-space: pre">150k</tspan></tspan></tspan></text>
 <text class="SVGTextShape"><tspan class="TextParagraph"><tspan class="TextPosition" x="480" y="9720"><tspan font-family="Liberation Sans, sans-serif" font-size="353px" font-weight="400" fill="rgb(255,255,255)" stroke="none" style="white-space: pre">200k</tspan></tspan></tspan></text>
 <text class="SVGTextShape"><tspan class="TextParagraph"><tspan class="TextPosition" x="480" y="8409"><tspan font-family="Liberation Sans, sans-serif" font-size="353px" font-weight="400" fill="rgb(255,255,255)" stroke="none" style="white-space: pre">250k</tspan></tspan></tspan></text>
 <text class="SVGTextShape"><tspan class="TextParagraph"><tspan class="TextPosition" x="480" y="7098"><tspan font-family="Liberation Sans, sans-serif" font-size="353px" font-weight="400" fill="rgb(255,255,255)" stroke="none" style="white-space: pre">300k</tspan></tspan></tspan></text>
 <text class="SVGTextShape"><tspan class="TextParagraph"><tspan class="TextPosition" x="480" y="5787"><tspan font-family="Liberation Sans, sans-serif" font-size="353px" font-weight="400" fill="rgb(255,255,255)" stroke="none" style="white-space: pre">350k</tspan></tspan></tspan></text>
 <text class="SVGTextShape"><tspan class="TextParagraph"><tspan class="TextPosition" x="480" y="4475"><tspan font-family="Liberation Sans, sans-serif" font-size="353px" font-weight="400" fill="rgb(255,255,255)" stroke="none" style="white-space: pre">400k</tspan></tspan></tspan></text>
 <text class="SVGTextShape"><tspan class="TextParagraph"><tspan class="TextPosition" x="480" y="3164"><tspan font-family="Liberation Sans, sans-serif" font-size="353px" font-weight="400" fill="rgb(255,255,255)" stroke="none" style="white-space: pre">450k</tspan></tspan></tspan></text>
 <text class="SVGTextShape"><tspan class="TextParagraph"><tspan class="TextPosition" x="480" y="1853"><tspan font-family="Liberation Sans, sans-serif" font-size="353px" font-weight="400" fill="rgb(255,255,255)" stroke="none" style="white-space: pre">500k</tspan></tspan></tspan></text>
 <text class="SVGTextShape"><tspan class="TextParagraph"><tspan class="TextPosition" x="11578" y="974"><tspan font-family="Liberation Sans, sans-serif" font-size="459px" font-weight="400" fill="rgb(255,255,255)" stroke="none" style="white-space: pre">Normal</tspan></tspan></tspan></text>
 <path fill="none" stroke="rgb(0,123,180)" stroke-width="80" stroke-linejoin="round" d="M 22629,6404 L 23429,6404"/>
 <path fill="none" stroke="rgb(38,69,197)" stroke-width="80" stroke-linejoin="round" d="M 22629,6902 L 23429,6902"/>
 <path fill="none" stroke="rgb(156,109,201)" stroke-width="80" stroke-linejoin="round" d="M 22629,7400 L 23429,7400"/>
 <path fill="none" stroke="rgb(213,91,179)" stroke-width="80" stroke-linejoin="round" d="M 22629,7898 L 23429,7898"/>
 <path fill="none" stroke="rgb(253,75,138)" stroke-width="80" stroke-linejoin="round" d="M 22629,8395 L 23429,8395"/>
 <path fill="none" stroke="rgb(255,85,84)" stroke-width="80" stroke-linejoin="round" d="M 22629,8893 L 23429,8893"/>
 <path fill="none" stroke="rgb(255,118,0)" stroke-width="80" stroke-linejoin="round" d="M 22629,9391 L 23429,9391"/>
 <text class="SVGTextShape"><tspan class="TextParagraph"><tspan class="TextPosition" x="23529" y="6524"><tspan font-family="Liberation Sans, sans-serif" font-size="353px" font-weight="400" fill="rgb(255,255,255)" stroke="none" style="white-space: pre">1</tspan></tspan></tspan></text>
 <text class="SVGTextShape"><tspan class="TextParagraph"><tspan class="TextPosition" x="23529" y="7022"><tspan font-family="Liberation Sans, sans-serif" font-size="353px" font-weight="400" fill="rgb(255,255,255)" stroke="none" style="white-space: pre">2</tspan></tspan></tspan></text>
 <text class="SVGTextShape"><tspan class="TextParagraph"><tspan class="TextPosition" x="23529" y="7520"><tspan font-family="Liberation Sans, sans-serif" font-size="353px" font-weight="400" fill="rgb(255,255,255)" stroke="none" style="white-space: pre">3</tspan></tspan></tspan></text>
 <text class="SVGTextShape"><tspan class="TextParagraph"><tspan class="TextPosition" x="23529" y="8017"><tspan font-family="Liberation Sans, sans-serif" font-size="353px" font-weight="400" fill="rgb(255,255,255)" stroke="none" style="white-space: pre">4</tspan></tspan></tspan></text>
 <text class="SVGTextShape"><tspan class="TextParagraph"><tspan class="TextPosition" x="23529" y="8515"><tspan font-family="Liberation Sans, sans-serif" font-size="353px" font-weight="400" fill="rgb(255,255,255)" stroke="none" style="white-space: pre">5, 6</tspan></tspan></tspan></text>
 <text class="SVGTextShape"><tspan class="TextParagraph"><tspan class="TextPosition" x="23529" y="9013"><tspan font-family="Liberation Sans, sans-serif" font-size="353px" font-weight="400" fill="rgb(255,255,255)" stroke="none" style="white-space: pre">ros 0</tspan></tspan></tspan></text>
 <text class="SVGTextShape"><tspan class="TextParagraph"><tspan class="TextPosition" x="23529" y="9511"><tspan font-family="Liberation Sans, sans-serif" font-size="353px" font-weight="400" fill="rgb(255,255,255)" stroke="none" style="white-space: pre">ros 1</tspan></tspan></tspan></text>
</svg>