<?xml version="1.0" encoding="UTF-8"?>
<!DOCTYPE svg PUBLIC "-//W3C//DTD SVG 1.1//EN" "http://www.w3.org/Graphics/SVG/1.1/DTD/svg11.dtd">
<svg width="246mm" height="158mm" viewBox="0 0 24600 15800" version="1.1" xmlns="http://www.w3.org/2000/svg" xmlns:xlink="http://www.w3.org/1999/xlink" stroke-width="28.222" stroke-linejoin="round" xml:space="preserve">
 <path fill="rgb(32,42,78)" stroke="none" d="M 12293,15810 L -13,15810 -13,-13 24598,-13 24598,15810 12293,15810 Z"/>
 <path fill="none" stroke="rgb(179,179,179)" stroke-linejoin="round" d="M 11606,14847 L 1471,14847 1471,1734 21741,1734 21741,14847 11606,14847 Z"/>
 <path fill="none" stroke="rgb(179,179,179)" stroke-linejoin="round" d="M 1471,1733 L 1471,14846"/>
 <path fill="none" stroke="rgb(179,179,179)" stroke-linejoin="round" d="M 2822,1733 L 2822,14846"/>
 <path fill="none" stroke="rgb(179,179,179)" stroke-linejoin="round" d="M 4173,1733 L 4173,14846"/>
 <path fill="none" stroke="rgb(179,179,179)" stroke-linejoin="round" d="M 5525,1733 L 5525,14846"/>
 <path fill="none" stroke="rgb(179,179,179)" stroke-linejoin="round" d="M 6876,1733 L 6876,14846"/>
 <path fill="none" stroke="rgb(179,179,179)" stroke-linejoin="round" d="M 8228,1733 L 8228,14846"/>
 <path fill="none" stroke="rgb(179,179,179)" stroke-linejoin="round" d="M 9579,1733 L 9579,14846"/>
 <path fill="none" stroke="rgb(179,179,179)" stroke-linejoin="round" d="M 10930,1733 L 10930,14846"/>
 <path fill="none" stroke="rgb(179,179,179)" stroke-linejoin="round" d="M 12282,1733 L 12282,14846"/>
 <path fill="none" stroke="rgb(179,179,179)" stroke-linejoin="round" d="M 13632,1733 L 13632,14846"/>
 <path fill="none" stroke="rgb(179,179,179)" stroke-linejoin="round" d="M 14984,1733 L 14984,14846"/>
 <path fill="none" stroke="rgb(179,179,179)" stroke-linejoin="round" d="M 16335,1733 L 16335,14846"/>
 <path fill="none" stroke="rgb(179,179,179)" stroke-linejoin="round" d="M 17686,1733 L 17686,14846"/>
 <path fill="none" stroke="rgb(179,179,179)" stroke-linejoin="round" d="M 19038,1733 L 19038,14846"/>
 <path fill="none" stroke="rgb(179,179,179)" stroke-linejoin="round" d="M 20389,1733 L 20389,14846"/>
 <path fill="none" stroke="rgb(179,179,179)" stroke-linejoin="round" d="M 21741,1733 L 21741,14846"/>
 <path fill="none" stroke="rgb(179,179,179)" stroke-linejoin="round" d="M 21741,14846 L 1471,14846"/>
 <path fill="none" stroke="rgb(179,179,179)" stroke-linejoin="round" d="M 21741,13534 L 1471,13534"/>
 <path fill="none" stroke="rgb(179,179,179)" stroke-linejoin="round" d="M 21741,12223 L 1471,12223"/>
 <path fill="none" stroke="rgb(179,179,179)" stroke-linejoin="round" d="M 21741,10911 L 1471,10911"/>
 <path fill="none" stroke="rgb(179,179,179)" stroke-linejoin="round" d="M 21741,9600 L 1471,9600"/>
 <path fill="none" stroke="rgb(179,179,179)" stroke-linejoin="round" d="M 21741,8289 L 1471,8289"/>
 <path fill="none" stroke="rgb(179,179,179)" stroke-linejoin="round" d="M 21741,6978 L 1471,6978"/>
 <path fill="none" stroke="rgb(179,179,179)" stroke-linejoin="round" d="M 21741,5667 L 1471,5667"/>
 <path fill="none" stroke="rgb(179,179,179)" stroke-linejoin="round" d="M 21741,4355 L 1471,4355"/>
 <path fill="none" stroke="rgb(179,179,179)" stroke-linejoin="round" d="M 21741,3044 L 1471,3044"/>
 <path fill="none" stroke="rgb(179,179,179)" stroke-linejoin="round" d="M 21741,1733 L 1471,1733"/>
 <path fill="none" stroke="rgb(179,179,179)" stroke-linejoin="round" d="M 1471,14996 L 1471,14846"/>
 <path fill="none" stroke="rgb(179,179,179)" stroke-linejoin="round" d="M 1471,14996 L 1471,14846"/>
 <path fill="none" stroke="rgb(179,179,179)" stroke-linejoin="round" d="M 2822,14996 L 2822,14846"/>
 <path fill="none" stroke="rgb(179,179,179)" stroke-linejoin="round" d="M 2822,14996 L 2822,14846"/>
 <path fill="none" stroke="rgb(179,179,179)" stroke-linejoin="round" d="M 4173,14996 L 4173,14846"/>
 <path fill="none" stroke="rgb(179,179,179)" stroke-linejoin="round" d="M 4173,14996 L 4173,14846"/>
 <path fill="none" stroke="rgb(179,179,179)" stroke-linejoin="round" d="M 5525,14996 L 5525,14846"/>
 <path fill="none" stroke="rgb(179,179,179)" stroke-linejoin="round" d="M 5525,14996 L 5525,14846"/>
 <path fill="none" stroke="rgb(179,179,179)" stroke-linejoin="round" d="M 6876,14996 L 6876,14846"/>
 <path fill="none" stroke="rgb(179,179,179)" stroke-linejoin="round" d="M 6876,14996 L 6876,14846"/>
 <path fill="none" stroke="rgb(179,179,179)" stroke-linejoin="round" d="M 8228,14996 L 8228,14846"/>
 <path fill="none" stroke="rgb(179,179,179)" stroke-linejoin="round" d="M 8228,14996 L 8228,14846"/>
 <path fill="none" stroke="rgb(179,179,179)" stroke-linejoin="round" d="M 9579,14996 L 9579,14846"/>
 <path fill="none" stroke="rgb(179,179,179)" stroke-linejoin="round" d="M 9579,14996 L 9579,14846"/>
 <path fill="none" stroke="rgb(179,179,179)" stroke-linejoin="round" d="M 10930,14996 L 10930,14846"/>
 <path fill="none" stroke="rgb(179,179,179)" stroke-linejoin="round" d="M 10930,14996 L 10930,14846"/>
 <path fill="none" stroke="rgb(179,179,179)" stroke-linejoin="round" d="M 12282,14996 L 12282,14846"/>
 <path fill="none" stroke="rgb(179,179,179)" stroke-linejoin="round" d="M 12282,14996 L 12282,14846"/>
 <path fill="none" stroke="rgb(179,179,179)" stroke-linejoin="round" d="M 13632,14996 L 13632,14846"/>
 <path fill="none" stroke="rgb(179,179,179)" stroke-linejoin="round" d="M 13632,14996 L 13632,14846"/>
 <path fill="none" stroke="rgb(179,179,179)" stroke-linejoin="round" d="M 14984,14996 L 14984,14846"/>
 <path fill="none" stroke="rgb(179,179,179)" stroke-linejoin="round" d="M 14984,14996 L 14984,14846"/>
 <path fill="none" stroke="rgb(179,179,179)" stroke-linejoin="round" d="M 16335,14996 L 16335,14846"/>
 <path fill="none" stroke="rgb(179,179,179)" stroke-linejoin="round" d="M 16335,14996 L 16335,14846"/>
 <path fill="none" stroke="rgb(179,179,179)" stroke-linejoin="round" d="M 17686,14996 L 17686,14846"/>
 <path fill="none" stroke="rgb(179,179,179)" stroke-linejoin="round" d="M 17686,14996 L 17686,14846"/>
 <path fill="none" stroke="rgb(179,179,179)" stroke-linejoin="round" d="M 19038,14996 L 19038,14846"/>
 <path fill="none" stroke="rgb(179,179,179)" stroke-linejoin="round" d="M 19038,14996 L 19038,14846"/>
 <path fill="none" stroke="rgb(179,179,179)" stroke-linejoin="round" d="M 20389,14996 L 20389,14846"/>
 <path fill="none" stroke="rgb(179,179,179)" stroke-linejoin="round" d="M 20389,14996 L 20389,14846"/>
 <path fill="none" stroke="rgb(179,179,179)" stroke-linejoin="round" d="M 21741,14996 L 21741,14846"/>
 <path fill="none" stroke="rgb(179,179,179)" stroke-linejoin="round" d="M 21741,14996 L 21741,14846"/>
 <path fill="none" stroke="rgb(179,179,179)" stroke-linejoin="round" d="M 1471,14846 L 21741,14846"/>
 <path fill="none" stroke="rgb(179,179,179)" stroke-linejoin="round" d="M 1321,14846 L 1471,14846"/>
 <path fill="none" stroke="rgb(179,179,179)" stroke-linejoin="round" d="M 1321,14846 L 1471,14846"/>
 <path fill="none" stroke="rgb(179,179,179)" stroke-linejoin="round" d="M 1321,13534 L 1471,13534"/>
 <path fill="none" stroke="rgb(179,179,179)" stroke-linejoin="round" d="M 1321,13534 L 1471,13534"/>
 <path fill="none" stroke="rgb(179,179,179)" stroke-linejoin="round" d="M 1321,12223 L 1471,12223"/>
 <path fill="none" stroke="rgb(179,179,179)" stroke-linejoin="round" d="M 1321,12223 L 1471,12223"/>
 <path fill="none" stroke="rgb(179,179,179)" stroke-linejoin="round" d="M 1321,10911 L 1471,10911"/>
 <path fill="none" stroke="rgb(179,179,179)" stroke-linejoin="round" d="M 1321,10911 L 1471,10911"/>
 <path fill="none" stroke="rgb(179,179,179)" stroke-linejoin="round" d="M 1321,9600 L 1471,9600"/>
 <path fill="none" stroke="rgb(179,179,179)" stroke-linejoin="round" d="M 1321,9600 L 1471,9600"/>
 <path fill="none" stroke="rgb(179,179,179)" stroke-linejoin="round" d="M 1321,8289 L 1471,8289"/>
 <path fill="none" stroke="rgb(179,179,179)" stroke-linejoin="round" d="M 1321,8289 L 1471,8289"/>
 <path fill="none" stroke="rgb(179,179,179)" stroke-linejoin="round" d="M 1321,6978 L 1471,6978"/>
 <path fill="none" stroke="rgb(179,179,179)" stroke-linejoin="round" d="M 1321,6978 L 1471,6978"/>
 <path fill="none" stroke="rgb(179,179,179)" stroke-linejoin="round" d="M 1321,5667 L 1471,5667"/>
 <path fill="none" stroke="rgb(179,179,179)" stroke-linejoin="round" d="M 1321,5667 L 1471,5667"/>
 <path fill="none" stroke="rgb(179,179,179)" stroke-linejoin="round" d="M 1321,4355 L 1471,4355"/>
 <path fill="none" stroke="rgb(179,179,179)" stroke-linejoin="round" d="M 1321,4355 L 1471,4355"/>
 <path fill="none" stroke="rgb(179,179,179)" stroke-linejoin="round" d="M 1321,3044 L 1471,3044"/>
 <path fill="none" stroke="rgb(179,179,179)" stroke-linejoin="round" d="M 1321,3044 L 1471,3044"/>
 <path fill="none" stroke="rgb(179,179,179)" stroke-linejoin="round" d="M 1321,1733 L 1471,1733"/>
 <path fill="none" stroke="rgb(179,179,179)" stroke-linejoin="round" d="M 1321,1733 L 1471,1733"/>
 <path fill="none" stroke="rgb(179,179,179)" stroke-linejoin="round" d="M 1471,14846 L 1471,1733"/>
 <path fill="none" stroke="rgb(255,118,0)" stroke-width="80" stroke-linejoin="round" d="M 1471,14793 L 1606,14790 1741,14788 1876,14788 2011,14785 2146,14783 2281,14780 2416,14777 2552,14775 2687,14772 2822,14767 2957,14764 3092,14762 3227,14759 3362,14754 3498,14751 3633,14748 3768,14743 3903,14738 4038,14735 4173,14730 4308,14725 4444,14722 4579,14717 4714,14712 4849,14706 4984,14701 5119,14693 5254,14688 5390,14683 5525,14675 5660,14670 5795,14662 5930,14654 6065,14646 6200,14638 6336,14630 6471,14623 6606,14612 6741,14604 6876,14594 7011,14583 7146,14573 7282,14562 7417,14552 7552,14539 7687,14528 7822,14515 7957,14502 8092,14486 8228,14473 8363,14457 8498,14442 8633,14426 8768,14410 8903,14392 9038,14373 9173,14355 9309,14334 9444,14316 9579,14295 9714,14271 9849,14248 9984,14224 10119,14200 10255,14174 10390,14148 10525,14119 10660,14090 10795,14061 10930,14030 11065,13996 11201,13962 11336,13928 11471,13891 11606,13851 11741,13812 11876,13770 12011,13728 12147,13684 12282,13636 12416,13589 12551,13537 12686,13484 12821,13432 12956,13374 13092,13316 13227,13253 13362,13191 13497,13125 13632,13057 13767,12983 13902,12910 14038,12831 14173,12753 14308,12669 14443,12582 14578,12490 14713,12396 14848,12299 14984,12196 15119,12089 15254,11979 15389,11866 15524,11745 15659,11622 15794,11494 15929,11360 16065,11221 16200,11074 16335,10924 16470,10767 16605,10604 16740,10434 16875,10258 17011,10075 17146,9883 17281,9684 17416,9479 17551,9264 17686,9041 17821,8808 17957,8567 18092,8315 18227,8055 18362,7783 18497,7503 18632,7209 18767,6902 18903,6585 19038,6254 19173,5911 19308,5554 19443,5181 19578,4793 19713,4392 19849,3975 19984,3540 20119,3086 20254,2616 20389,2126 20494,1733"/>
 <path fill="none" stroke="rgb(255,85,84)" stroke-width="80" stroke-linejoin="round" d="M 1471,14793 L 1606,14790 1741,14785 1876,14780 2011,14777 2146,14772 2281,14767 2416,14762 2552,14756 2687,14748 2822,14743 2957,14735 3092,14727 3227,14720 3362,14709 3498,14701 3633,14691 3768,14680 3903,14667 4038,14657 4173,14644 4308,14628 4444,14612 4579,14596 4714,14581 4849,14560 4984,14541 5119,14520 5254,14497 5390,14473 5525,14447 5660,14418 5795,14389 5930,14355 6065,14321 6200,14284 6336,14248 6471,14206 6606,14158 6741,14111 6876,14061 7011,14006 7146,13946 7282,13883 7417,13815 7552,13744 7687,13668 7822,13584 7957,13495 8092,13400 8228,13301 8363,13193 8498,13075 8633,12952 8768,12821 8903,12679 9038,12527 9173,12364 9309,12191 9444,12005 9579,11806 9714,11593 9849,11365 9984,11121 10119,10861 10255,10583 10390,10284 10525,9964 10660,9624 10795,9256 10930,8866 11065,8448 11201,8000 11336,7521 11471,7010 11606,6459 11741,5874 11876,5244 12011,4573 12147,3854 12282,3083 12416,2260 12497,1733"/>
 <path fill="none" stroke="rgb(253,75,138)" stroke-width="80" stroke-linejoin="round" d="M 1471,14636 L 1606,14615 1741,14591 1876,14567 2011,14539 2146,14507 2281,14473 2416,14436 2552,14397 2687,14350 2822,14303 2957,14248 3092,14187 3227,14122 3362,14048 3498,13969 3633,13880 3768,13786 3903,13678 4038,13563 4173,13434 4308,13293 4444,13138 4579,12968 4714,12779 4849,12572 4984,12346 5119,12094 5254,11819 5390,11517 5525,11184 5660,10817 5795,10416 5930,9972 6065,9484 6200,8949 6336,8359 6471,7712 6606,6999 6741,6212 6876,5349 7011,4400 7146,3356 7282,2207 7332,1733"/>
 <path fill="none" stroke="rgb(213,91,179)" stroke-width="80" stroke-linejoin="round" d="M 1471,14636 L 1606,14607 1741,14573 1876,14533 2011,14491 2146,14442 2281,14384 2416,14321 2552,14248 2687,14164 2822,14067 2957,13959 3092,13836 3227,13694 3362,13531 3498,13348 3633,13138 3768,12899 3903,12627 4038,12317 4173,11963 4308,11559 4444,11098 4579,10573 4714,9975 4849,9293 4984,8517 5119,7631 5254,6621 5390,5470 5525,4156 5660,2658 5733,1733"/>
 <path fill="none" stroke="rgb(156,109,201)" stroke-width="80" stroke-linejoin="round" d="M 1471,14583 L 1606,14541 1741,14491 1876,14436 2011,14371 2146,14295 2281,14206 2416,14103 2552,13985 2687,13849 2822,13689 2957,13503 3092,13288 3227,13038 3362,12750 3498,12414 3633,12026 3768,11575 3903,11053 4038,10444 4173,9742 4308,8926 4444,7976 4579,6878 4714,5604 4849,4127 4984,2412 5030,1733"/>
 <path fill="none" stroke="rgb(38,69,197)" stroke-width="80" stroke-linejoin="round" d="M 1471,14531 L 1606,14478 1741,14415 1876,14342 2011,14255 2146,14156 2281,14038 2416,13901 2552,13741 2687,13552 2822,13332 2957,13075 3092,12773 3227,12422 3362,12010 3498,11528 3633,10964 3768,10305 3903,9534 4038,8629 4173,7573 4308,6338 4444,4890 4579,3199 4679,1733"/>
 <path fill="none" stroke="rgb(0,123,180)" stroke-width="80" stroke-linejoin="round" d="M 1471,14452 L 1606,14381 1741,14297 1876,14200 2011,14082 2146,13946 2281,13783 2416,13592 2552,13366 2687,13101 2822,12787 2957,12417 3092,11979 3227,11462 3362,10854 3498,10135 3633,9288 3768,8286 3903,7107 4038,5714 4173,4069 4308,2129 4332,1733"/>
 <text class="SVGTextShape"><tspan class="TextParagraph"><tspan class="TextPosition" x="1378" y="15414"><tspan font-family="Liberation Sans, sans-serif" font-size="353px" font-weight="400" fill="rgb(255,255,255)" stroke="none" style="white-space: pre">0</tspan></tspan></tspan></text>
 <text class="SVGTextShape"><tspan class="TextParagraph"><tspan class="TextPosition" x="2637" y="15414"><tspan font-family="Liberation Sans, sans-serif" font-size="353px" font-weight="400" fill="rgb(255,255,255)" stroke="none" style="white-space: pre">10</tspan></tspan></tspan></text>
 <text class="SVGTextShape"><tspan class="TextParagraph"><tspan class="TextPosition" x="3988" y="15414"><tspan font-family="Liberation Sans, sans-serif" font-size="353px" font-weight="400" fill="rgb(255,255,255)" stroke="none" style="white-space: pre">20</tspan></tspan></tspan></text>
 <text class="SVGTextShape"><tspan class="TextParagraph"><tspan class="TextPosition" x="5340" y="15414"><tspan font-family="Liberation Sans, sans-serif" font-size="353px" font-weight="400" fill="rgb(255,255,255)" stroke="none" style="white-space: pre">30</tspan></tspan></tspan></text>
 <text class="SVGTextShape"><tspan class="TextParagraph"><tspan class="TextPosition" x="6691" y="15414"><tspan font-family="Liberation Sans, sans-serif" font-size="353px" font-weight="400" fill="rgb(255,255,255)" stroke="none" style="white-space: pre">40</tspan></tspan></tspan></text>
 <text class="SVGTextShape"><tspan class="TextParagraph"><tspan class="TextPosition" x="8043" y="15414"><tspan font-family="Liberation Sans, sans-serif" font-size="353px" font-weight="400" fill="rgb(255,255,255)" stroke="none" style="white-space: pre">50</tspan></tspan></tspan></text>
 <text class="SVGTextShape"><tspan class="TextParagraph"><tspan class="TextPosition" x="9394" y="15414"><tspan font-family="Liberation Sans, sans-serif" font-size="353px" font-weight="400" fill="rgb(255,255,255)" stroke="none" style="white-space: pre">60</tspan></tspan></tspan></text>
 <text class="SVGTextShape"><tspan class="TextParagraph"><tspan class="TextPosition" x="10745" y="15414"><tspan font-family="Liberation Sans, sans-serif" font-size="353px" font-weight="400" fill="rgb(255,255,255)" stroke="none" style="white-space: pre">70</tspan></tspan></tspan></text>
 <text class="SVGTextShape"><tspan class="TextParagraph"><tspan class="TextPosition" x="12097" y="15414"><tspan font-family="Liberation Sans, sans-serif" font-size="353px" font-weight="400" fill="rgb(255,255,255)" stroke="none" style="white-space: pre">80</tspan></tspan></tspan></text>
 <text class="SVGTextShape"><tspan class="TextParagraph"><tspan class="TextPosition" x="13447" y="15414"><tspan font-family="Liberation Sans, sans-serif" font-size="353px" font-weight="400" fill="rgb(255,255,255)" stroke="none" style="white-space: pre">90</tspan></tspan></tspan></text>
 <text class="SVGTextShape"><tspan class="TextParagraph"><tspan class="TextPosition" x="14706" y="15414"><tspan font-family="Liberation Sans, sans-serif" font-size="353px" font-weight="400" fill="rgb(255,255,255)" stroke="none" style="white-space: pre">100</tspan></tspan></tspan></text>
 <text class="SVGTextShape"><tspan class="TextParagraph"><tspan class="TextPosition" x="16057" y="15414"><tspan font-family="Liberation Sans, sans-serif" font-size="353px" font-weight="400" fill="rgb(255,255,255)" stroke="none" style="white-space: pre">110</tspan></tspan></tspan></text>
 <text class="SVGTextShape"><tspan class="TextParagraph"><tspan class="TextPosition" x="17408" y="15414"><tspan font-family="Liberation Sans, sans-serif" font-size="353px" font-weight="400" fill="rgb(255,255,255)" stroke="none" style="white-space: pre">120</tspan></tspan></tspan></text>
 <text class="SVGTextShape"><tspan class="TextParagraph"><tspan class="TextPosition" x="18760" y="15414"><tspan font-family="Liberation Sans, sans-serif" font-size="353px" font-weight="400" fill="rgb(255,255,255)" stroke="none" style="white-space: pre">130</tspan></tspan></tspan></text>
 <text class="SVGTextShape"><tspan class="TextParagraph"><tspan class="TextPosition" x="20111" y="15414"><tspan font-family="Liberation Sans, sans-serif" font-size="353px" font-weight="400" fill="rgb(255,255,255)" stroke="none" style="white-space: pre">140</tspan></tspan></tspan></text>
 <text class="SVGTextShape"><tspan class="TextParagraph"><tspan class="TextPosition" x="21463" y="15414"><tspan font-family="Liberation Sans, sans-serif" font-size="353px" font-weight="400" fill="rgb(255,255,255)" stroke="none" style="white-space: pre">150</tspan></tspan></tspan></text>
 <text class="SVGTextShape"><tspan class="TextParagraph"><tspan class="TextPosition" x="877" y="14966"><tspan font-family="Liberation Sans, sans-serif" font-size="353px" font-weight="400" fill="rgb(255,255,255)" stroke="none" style="white-space: pre">0k</tspan></tspan></tspan></text>
 <text class="SVGTextShape"><tspan class="TextParagraph"><tspan class="TextPosition" x="692" y="13654"><tspan font-family="Liberation Sans, sans-serif" font-size="353px" font-weight="400" fill="rgb(255,255,255)" stroke="none" style="white-space: pre">50k</tspan></tspan></tspan></text>
 <text class="SVGTextShape"><tspan class="TextParagraph"><tspan class="TextPosition" x="480" y="12343"><tspan font-family="Liberation Sans, sans-serif" font-size="353px" font-weight="400" fill="rgb(255,255,255)" stroke="none" style="white-space: pre">100k</tspan></tspan></tspan></text>
 <text class="SVGTextShape"><tspan class="TextParagraph"><tspan class="TextPosition" x="480" y="11031"><tspan font-family="Liberation Sans, sans-serif" font-size="353px" font-weight="400" fill="rgb(255,255,255)" stroke="none" style="white-space: pre">150k</tspan></tspan></tspan></text>
 <text class="SVGTextShape"><tspan class="TextParagraph"><tspan class="TextPosition" x="480" y="9720"><tspan font-family="Liberation Sans, sans-serif" font-size="353px" font-weight="400" fill="rgb(255,255,255)" stroke="none" style="white-space: pre">200k</tspan></tspan></tspan></text>
 <text class="SVGTextShape"><tspan class="TextParagraph"><tspan class="TextPosition" x="480" y="8409"><tspan font-family="Liberation Sans, sans-serif" font-size="353px" font-weight="400" fill="rgb(255,255,255)" stroke="none" style="white-space: pre">250k</tspan></tspan></tspan></text>
 <text class="SVGTextShape"><tspan class="TextParagraph"><tspan class="TextPosition" x="480" y="7098"><tspan font-family="Liberation Sans, sans-serif" font-size="353px" font-weight="400" fill="rgb(255,255,255)" stroke="none" style="white-space: pre">300k</tspan></tspan></tspan></text>
 <text class="SVGTextShape"><tspan class="TextParagraph"><tspan class="TextPosition" x="480" y="5787"><tspan font-family="Liberation Sans, sans-serif" font-size="353px" font-weight="400" fill="rgb(255,255,255)" stroke="none" style="white-space: pre">350k</tspan></tspan></tspan></text>
 <text class="SVGTextShape"><tspan class="TextParagraph"><tspan class="TextPosition" x="480" y="4475"><tspan font-family="Liberation Sans, sans-serif" font-size="353px" font-weight="400" fill="rgb(255,255,255)" stroke="none" style="white-space: pre">400k</tspan></tspan></tspan></text>
 <text class="SVGTextShape"><tspan class="TextParagraph"><tspan class="TextPosition" x="480" y="3164"><tspan font-family="Liberation Sans, sans-serif" font-size="353px" font-weight="400" fill="rgb(255,255,255)" stroke="none" style="white-space: pre">450k</tspan></tspan></tspan></text>
 <text class="SVGTextShape"><tspan class="TextParagraph"><tspan class="TextPosition" x="480" y="1853"><tspan font-family="Liberation Sans, sans-serif" font-size="353px" font-weight="400" fill="rgb(255,255,255)" stroke="none" style="white-space: pre">500k</tspan></tspan></tspan></text>
 <text class="SVGTextShape"><tspan class="TextParagraph"><tspan class="TextPosition" x="11618" y="974"><tspan font-family="Liberation Sans, sans-serif" font-size="459px" font-weight="400" fill="rgb(255,255,255)" stroke="none" style="white-space: pre">Insane</tspan></tspan></tspan></text>
 <path fill="none" stroke="rgb(0,123,180)" stroke-width="80" stroke-linejoin="round" d="M 22629,6404 L 23429,6404"/>
 <path fill="none" stroke="rgb(38,69,197)" stroke-width="80" stroke-linejoin="round" d="M 22629,6902 L 23429,6902"/>
 <path fill="none" stroke="rgb(156,109,201)" stroke-width="80" stroke-linejoin="round" d="M 22629,7400 L 23429,7400"/>
 <path fill="none" stroke="rgb(213,91,179)" stroke-width="80" stroke-linejoin="round" d="M 22629,7898 L 23429,7898"/>
 <path fill="none" stroke="rgb(253,75,138)" stroke-width="80" stroke-linejoin="round" d="M 22629,8395 L 23429,8395"/>
 <path fill="none" stroke="rgb(255,85,84)" stroke-width="80" stroke-linejoin="round" d="M 22629,8893 L 23429,8893"/>
 <path fill="none" stroke="rgb(255,118,0)" stroke-width="80" stroke-linejoin="round" d="M 22629,9391 L 23429,9391"/>
 <text class="SVGTextShape"><tspan class="TextParagraph"><tspan class="TextPosition" x="23529" y="6524"><tspan font-family="Liberation Sans, sans-serif" font-size="353px" font-weight="400" fill="rgb(255,255,255)" stroke="none" style="white-space: pre">1</tspan></tspan></tspan></text>
 <text class="SVGTextShape"><tspan class="TextParagraph"><tspan class="TextPosition" x="23529" y="7022"><tspan font-family="Liberation Sans, sans-serif" font-size="353px" font-weight="400" fill="rgb(255,255,255)" stroke="none" style="white-space: pre">2</tspan></tspan></tspan></text>
 <text class="SVGTextShape"><tspan class="TextParagraph"><tspan class="TextPosition" x="23529" y="7520"><tspan font-family="Liberation Sans, sans-serif" font-size="353px" font-weight="400" fill="rgb(255,255,255)" stroke="none" style="white-space: pre">3 – 5</tspan></tspan></tspan></text>
 <text class="SVGTextShape"><tspan class="TextParagraph"><tspan class="TextPosition" x="23529" y="8017"><tspan font-family="Liberation Sans, sans-serif" font-size="353px" font-weight="400" fill="rgb(255,255,255)" stroke="none" style="white-space: pre">6, 7</tspan></tspan></tspan></text>
 <text class="SVGTextShape"><tspan class="TextParagraph"><tspan class="TextPosition" x="23529" y="8515"><tspan font-family="Liberation Sans, sans-serif" font-size="353px" font-weight="400" fill="rgb(255,255,255)" stroke="none" style="white-space: pre">8</tspan></tspan></tspan></text>
 <text class="SVGTextShape"><tspan class="TextParagraph"><tspan class="TextPosition" x="23529" y="9013"><tspan font-family="Liberation Sans, sans-serif" font-size="353px" font-weight="400" fill="rgb(255,255,255)" stroke="none" style="white-space: pre">ros 0</tspan></tspan></tspan></text>
 <text class="SVGTextShape"><tspan class="TextParagraph"><tspan class="TextPosition" x="23529" y="9511"><tspan font-family="Liberation Sans, sans-serif" font-size="353px" font-weight="400" fill="rgb(255,255,255)" stroke="none" style="white-space: pre">ros 1</tspan></tspan></tspan></text>
</svg>