<?xml version="1.0" encoding="UTF-8"?>
<!DOCTYPE svg PUBLIC "-//W3C//DTD SVG 1.1//EN" "http://www.w3.org/Graphics/SVG/1.1/DTD/svg11.dtd">
<svg width="246mm" height="158mm" viewBox="0 0 24600 15800" version="1.1" xmlns="http://www.w3.org/2000/svg" xmlns:xlink="http://www.w3.org/1999/xlink" stroke-width="28.222" stroke-linejoin="round" xml:space="preserve">
 <path fill="rgb(32,42,78)" stroke="none" d="M 12293,15810 L -13,15810 -13,-13 24598,-13 24598,15810 12293,15810 Z"/>
 <path fill="none" stroke="rgb(179,179,179)" stroke-linejoin="round" d="M 11606,14847 L 1471,14847 1471,1734 21741,1734 21741,14847 11606,14847 Z"/>
 <path fill="none" stroke="rgb(179,179,179)" stroke-linejoin="round" d="M 1471,1733 L 1471,14846"/>
 <path fill="none" stroke="rgb(179,179,179)" stroke-linejoin="round" d="M 2822,1733 L 2822,14846"/>
 <path fill="none" stroke="rgb(179,179,179)" stroke-linejoin="round" d="M 4173,1733 L 4173,14846"/>
 <path fill="none" stroke="rgb(179,179,179)" stroke-linejoin="round" d="M 5525,1733 L 5525,14846"/>
 <path fill="none" stroke="rgb(179,179,179)" stroke-linejoin="round" d="M 6876,1733 L 6876,14846"/>
 <path fill="none" stroke="rgb(179,179,179)" stroke-linejoin="round" d="M 8228,1733 L 8228,14846"/>
 <path fill="none" stroke="rgb(179,179,179)" stroke-linejoin="round" d="M 9579,1733 L 9579,14846"/>
 <path fill="none" stroke="rgb(179,179,179)" stroke-linejoin="round" d="M 10930,1733 L 10930,14846"/>
 <path fill="none" stroke="rgb(179,179,179)" stroke-linejoin="round" d="M 12282,1733 L 12282,14846"/>
 <path fill="none" stroke="rgb(179,179,179)" stroke-linejoin="round" d="M 13632,1733 L 13632,14846"/>
 <path fill="none" stroke="rgb(179,179,179)" stroke-linejoin="round" d="M 14984,1733 L 14984,14846"/>
 <path fill="none" stroke="rgb(179,179,179)" stroke-linejoin="round" d="M 16335,1733 L 16335,14846"/>
 <path fill="none" stroke="rgb(179,179,179)" stroke-linejoin="round" d="M 17686,1733 L 17686,14846"/>
 <path fill="none" stroke="rgb(179,179,179)" stroke-linejoin="round" d="M 19038,1733 L 19038,14846"/>
 <path fill="none" stroke="rgb(179,179,179)" stroke-linejoin="round" d="M 20389,1733 L 20389,14846"/>
 <path fill="none" stroke="rgb(179,179,179)" stroke-linejoin="round" d="M 21741,1733 L 21741,14846"/>
 <path fill="none" stroke="rgb(179,179,179)" stroke-linejoin="round" d="M 21741,14846 L 1471,14846"/>
 <path fill="none" stroke="rgb(179,179,179)" stroke-linejoin="round" d="M 21741,13534 L 1471,13534"/>
 <path fill="none" stroke="rgb(179,179,179)" stroke-linejoin="round" d="M 21741,12223 L 1471,12223"/>
 <path fill="none" stroke="rgb(179,179,179)" stroke-linejoin="round" d="M 21741,10911 L 1471,10911"/>
 <path fill="none" stroke="rgb(179,179,179)" stroke-linejoin="round" d="M 21741,9600 L 1471,9600"/>
 <path fill="none" stroke="rgb(179,179,179)" stroke-linejoin="round" d="M 21741,8289 L 1471,8289"/>
 <path fill="none" stroke="rgb(179,179,179)" stroke-linejoin="round" d="M 21741,6978 L 1471,6978"/>
 <path fill="none" stroke="rgb(179,179,179)" stroke-linejoin="round" d="M 21741,5667 L 1471,5667"/>
 <path fill="none" stroke="rgb(179,179,179)" stroke-linejoin="round" d="M 21741,4355 L 1471,4355"/>
 <path fill="none" stroke="rgb(179,179,179)" stroke-linejoin="round" d="M 21741,3044 L 1471,3044"/>
 <path fill="none" stroke="rgb(179,179,179)" stroke-linejoin="round" d="M 21741,1733 L 1471,1733"/>
 <path fill="none" stroke="rgb(179,179,179)" stroke-linejoin="round" d="M 1471,14996 L 1471,14846"/>
 <path fill="none" stroke="rgb(179,179,179)" stroke-linejoin="round" d="M 1471,14996 L 1471,14846"/>
 <path fill="none" stroke="rgb(179,179,179)" stroke-linejoin="round" d="M 2822,14996 L 2822,14846"/>
 <path fill="none" stroke="rgb(179,179,179)" stroke-linejoin="round" d="M 2822,14996 L 2822,14846"/>
 <path fill="none" stroke="rgb(179,179,179)" stroke-linejoin="round" d="M 4173,14996 L 4173,14846"/>
 <path fill="none" stroke="rgb(179,179,179)" stroke-linejoin="round" d="M 4173,14996 L 4173,14846"/>
 <path fill="none" stroke="rgb(179,179,179)" stroke-linejoin="round" d="M 5525,14996 L 5525,14846"/>
 <path fill="none" stroke="rgb(179,179,179)" stroke-linejoin="round" d="M 5525,14996 L 5525,14846"/>
 <path fill="none" stroke="rgb(179,179,179)" stroke-linejoin="round" d="M 6876,14996 L 6876,14846"/>
 <path fill="none" stroke="rgb(179,179,179)" stroke-linejoin="round" d="M 6876,14996 L 6876,14846"/>
 <path fill="none" stroke="rgb(179,179,179)" stroke-linejoin="round" d="M 8228,14996 L 8228,14846"/>
 <path fill="none" stroke="rgb(179,179,179)" stroke-linejoin="round" d="M 8228,14996 L 8228,14846"/>
 <path fill="none" stroke="rgb(179,179,179)" stroke-linejoin="round" d="M 9579,14996 L 9579,14846"/>
 <path fill="none" stroke="rgb(179,179,179)" stroke-linejoin="round" d="M 9579,14996 L 9579,14846"/>
 <path fill="none" stroke="rgb(179,179,179)" stroke-linejoin="round" d="M 10930,14996 L 10930,14846"/>
 <path fill="none" stroke="rgb(179,179,179)" stroke-linejoin="round" d="M 10930,14996 L 10930,14846"/>
 <path fill="none" stroke="rgb(179,179,179)" stroke-linejoin="round" d="M 12282,14996 L 12282,14846"/>
 <path fill="none" stroke="rgb(179,179,179)" stroke-linejoin="round" d="M 12282,14996 L 12282,14846"/>
 <path fill="none" stroke="rgb(179,179,179)" stroke-linejoin="round" d="M 13632,14996 L 13632,14846"/>
 <path fill="none" stroke="rgb(179,179,179)" stroke-linejoin="round" d="M 13632,14996 L 13632,14846"/>
 <path fill="none" stroke="rgb(179,179,179)" stroke-linejoin="round" d="M 14984,14996 L 14984,14846"/>
 <path fill="none" stroke="rgb(179,179,179)" stroke-linejoin="round" d="M 14984,14996 L 14984,14846"/>
 <path fill="none" stroke="rgb(179,179,179)" stroke-linejoin="round" d="M 16335,14996 L 16335,14846"/>
 <path fill="none" stroke="rgb(179,179,179)" stroke-linejoin="round" d="M 16335,14996 L 16335,14846"/>
 <path fill="none" stroke="rgb(179,179,179)" stroke-linejoin="round" d="M 17686,14996 L 17686,14846"/>
 <path fill="none" stroke="rgb(179,179,179)" stroke-linejoin="round" d="M 17686,14996 L 17686,14846"/>
 <path fill="none" stroke="rgb(179,179,179)" stroke-linejoin="round" d="M 19038,14996 L 19038,14846"/>
 <path fill="none" stroke="rgb(179,179,179)" stroke-linejoin="round" d="M 19038,14996 L 19038,14846"/>
 <path fill="none" stroke="rgb(179,179,179)" stroke-linejoin="round" d="M 20389,14996 L 20389,14846"/>
 <path fill="none" stroke="rgb(179,179,179)" stroke-linejoin="round" d="M 20389,14996 L 20389,14846"/>
 <path fill="none" stroke="rgb(179,179,179)" stroke-linejoin="round" d="M 21741,14996 L 21741,14846"/>
 <path fill="none" stroke="rgb(179,179,179)" stroke-linejoin="round" d="M 21741,14996 L 21741,14846"/>
 <path fill="none" stroke="rgb(179,179,179)" stroke-linejoin="round" d="M 1471,14846 L 21741,14846"/>
 <path fill="none" stroke="rgb(179,179,179)" stroke-linejoin="round" d="M 1321,14846 L 1471,14846"/>
 <path fill="none" stroke="rgb(179,179,179)" stroke-linejoin="round" d="M 1321,14846 L 1471,14846"/>
 <path fill="none" stroke="rgb(179,179,179)" stroke-linejoin="round" d="M 1321,13534 L 1471,13534"/>
 <path fill="none" stroke="rgb(179,179,179)" stroke-linejoin="round" d="M 1321,13534 L 1471,13534"/>
 <path fill="none" stroke="rgb(179,179,179)" stroke-linejoin="round" d="M 1321,12223 L 1471,12223"/>
 <path fill="none" stroke="rgb(179,179,179)" stroke-linejoin="round" d="M 1321,12223 L 1471,12223"/>
 <path fill="none" stroke="rgb(179,179,179)" stroke-linejoin="round" d="M 1321,10911 L 1471,10911"/>
 <path fill="none" stroke="rgb(179,179,179)" stroke-linejoin="round" d="M 1321,10911 L 1471,10911"/>
 <path fill="none" stroke="rgb(179,179,179)" stroke-linejoin="round" d="M 1321,9600 L 1471,9600"/>
 <path fill="none" stroke="rgb(179,179,179)" stroke-linejoin="round" d="M 1321,9600 L 1471,9600"/>
 <path fill="none" stroke="rgb(179,179,179)" stroke-linejoin="round" d="M 1321,8289 L 1471,8289"/>
 <path fill="none" stroke="rgb(179,179,179)" stroke-linejoin="round" d="M 1321,8289 L 1471,8289"/>
 <path fill="none" stroke="rgb(179,179,179)" stroke-linejoin="round" d="M 1321,6978 L 1471,6978"/>
 <path fill="none" stroke="rgb(179,179,179)" stroke-linejoin="round" d="M 1321,6978 L 1471,6978"/>
 <path fill="none" stroke="rgb(179,179,179)" stroke-linejoin="round" d="M 1321,5667 L 1471,5667"/>
 <path fill="none" stroke="rgb(179,179,179)" stroke-linejoin="round" d="M 1321,5667 L 1471,5667"/>
 <path fill="none" stroke="rgb(179,179,179)" stroke-linejoin="round" d="M 1321,4355 L 1471,4355"/>
 <path fill="none" stroke="rgb(179,179,179)" stroke-linejoin="round" d="M 1321,4355 L 1471,4355"/>
 <path fill="none" stroke="rgb(179,179,179)" stroke-linejoin="round" d="M 1321,3044 L 1471,3044"/>
 <path fill="none" stroke="rgb(179,179,179)" stroke-linejoin="round" d="M 1321,3044 L 1471,3044"/>
 <path fill="none" stroke="rgb(179,179,179)" stroke-linejoin="round" d="M 1321,1733 L 1471,1733"/>
 <path fill="none" stroke="rgb(179,179,179)" stroke-linejoin="round" d="M 1321,1733 L 1471,1733"/>
 <path fill="none" stroke="rgb(179,179,179)" stroke-linejoin="round" d="M 1471,14846 L 1471,1733"/>
 <path fill="none" stroke="rgb(255,118,0)" stroke-width="80" stroke-linejoin="round" d="M 1471,14819 L 1606,14819 1741,14817 1876,14817 2011,14814 2146,14814 2281,14811 2416,14811 2552,14809 2687,14809 2822,14806 2957,14806 3092,14804 3227,14801 3362,14801 3498,14798 3633,14796 3768,14796 3903,14793 4038,14790 4173,14788 4308,14785 4444,14783 4579,14780 4714,14777 4849,14775 4984,14772 5119,14769 5254,14767 5390,14764 5525,14762 5660,14756 5795,14754 5930,14751 6065,14746 6200,14743 6336,14738 6471,14733 6606,14730 6741,14725 6876,14720 7011,14714 7146,14709 7282,14704 7417,14699 7552,14693 7687,14686 7822,14680 7957,14672 8092,14667 8228,14659 8363,14651 8498,14644 8633,14636 8768,14628 8903,14620 9038,14609 9173,14599 9309,14591 9444,14581 9579,14570 9714,14560 9849,14547 9984,14536 10119,14523 10255,14510 10390,14497 10525,14484 10660,14468 10795,14452 10930,14436 11065,14421 11201,14405 11336,14387 11471,14368 11606,14350 11741,14329 11876,14308 12011,14287 12147,14263 12282,14242 12416,14216 12551,14192 12686,14166 12821,14137 12956,14111 13092,14080 13227,14051 13362,14019 13497,13985 13632,13951 13767,13914 13902,13878 14038,13838 14173,13799 14308,13757 14443,13712 14578,13668 14713,13621 14848,13571 14984,13521 15119,13469 15254,13413 15389,13356 15524,13295 15659,13235 15794,13170 15929,13101 16065,13033 16200,12960 16335,12884 16470,12805 16605,12724 16740,12640 16875,12551 17011,12459 17146,12364 17281,12265 17416,12162 17551,12055 17686,11942 17821,11827 17957,11706 18092,11580 18227,11449 18362,11315 18497,11174 18632,11027 18767,10875 18903,10715 19038,10549 19173,10376 19308,10198 19443,10012 19578,9820 19713,9618 19849,9408 19984,9191 20119,8965 20254,8732 20389,8485 20524,8231 20659,7966 20795,7692 20930,7406 21065,7109 21200,6800 21335,6477 21470,6144 21605,5795 21741,5433"/>
 <path fill="none" stroke="rgb(255,85,84)" stroke-width="80" stroke-linejoin="round" d="M 1471,14819 L 1606,14817 1741,14817 1876,14814 2011,14814 2146,14811 2281,14811 2416,14809 2552,14806 2687,14804 2822,14804 2957,14801 3092,14798 3227,14796 3362,14793 3498,14790 3633,14788 3768,14785 3903,14783 4038,14780 4173,14775 4308,14772 4444,14769 4579,14764 4714,14762 4849,14756 4984,14751 5119,14748 5254,14743 5390,14738 5525,14733 5660,14727 5795,14720 5930,14714 6065,14706 6200,14701 6336,14693 6471,14686 6606,14678 6741,14670 6876,14662 7011,14651 7146,14641 7282,14633 7417,14620 7552,14609 7687,14599 7822,14586 7957,14573 8092,14560 8228,14544 8363,14531 8498,14515 8633,14497 8768,14481 8903,14463 9038,14442 9173,14423 9309,14402 9444,14379 9579,14355 9714,14331 9849,14305 9984,14279 10119,14250 10255,14221 10390,14190 10525,14156 10660,14122 10795,14085 10930,14048 11065,14009 11201,13967 11336,13922 11471,13875 11606,13828 11741,13775 11876,13723 12011,13665 12147,13608 12282,13545 12416,13482 12551,13413 12686,13340 12821,13267 12956,13185 13092,13104 13227,13017 13362,12926 13497,12829 13632,12729 13767,12621 13902,12511 14038,12393 14173,12273 14308,12144 14443,12008 14578,11866 14713,11716 14848,11562 14984,11397 15119,11223 15254,11042 15389,10854 15524,10654 15659,10444 15794,10224 15929,9993 16065,9749 16200,9495 16335,9227 16470,8947 16605,8650 16740,8341 16875,8016 17011,7676 17146,7316 17281,6941 17416,6545 17551,6131 17686,5696 17821,5237 17957,4757 18092,4253 18227,3723 18362,3167 18497,2582 18632,1969 18682,1733"/>
 <path fill="none" stroke="rgb(253,75,138)" stroke-width="80" stroke-linejoin="round" d="M 1471,14583 L 1606,14557 1741,14528 1876,14497 2011,14463 2146,14423 2281,14381 2416,14334 2552,14284 2687,14227 2822,14166 2957,14098 3092,14022 3227,13941 3362,13849 3498,13749 3633,13642 3768,13521 3903,13387 4038,13240 4173,13080 4308,12905 4444,12711 4579,12498 4714,12262 4849,12005 4984,11719 5119,11407 5254,11063 5390,10686 5525,10269 5660,9812 5795,9309 5930,8753 6065,8144 6200,7476 6336,6739 6471,5929 6606,5037 6741,4056 6876,2976 7011,1788 7017,1733"/>
 <path fill="none" stroke="rgb(213,91,179)" stroke-width="80" stroke-linejoin="round" d="M 1471,14583 L 1606,14552 1741,14518 1876,14478 2011,14434 2146,14384 2281,14329 2416,14266 2552,14195 2687,14119 2822,14030 2957,13933 3092,13823 3227,13702 3362,13563 3498,13411 3633,13238 3768,13044 3903,12829 4038,12587 4173,12314 4308,12013 4444,11672 4579,11292 4714,10864 4849,10387 4984,9852 5119,9254 5254,8582 5390,7831 5525,6989 5660,6044 5795,4990 5930,3807 6065,2483 6134,1733"/>
 <path fill="none" stroke="rgb(156,109,201)" stroke-width="80" stroke-linejoin="round" d="M 1471,14583 L 1606,14549 1741,14510 1876,14468 2011,14418 2146,14363 2281,14300 2416,14229 2552,14148 2687,14059 2822,13956 2957,13838 3092,13710 3227,13560 3362,13395 3498,13206 3633,12991 3768,12750 3903,12480 4038,12170 4173,11824 4308,11431 4444,10987 4579,10484 4714,9917 4849,9277 4984,8553 5119,7736 5254,6813 5390,5766 5525,4586 5660,3254 5795,1746 5796,1733"/>
 <path fill="none" stroke="rgb(38,69,197)" stroke-width="80" stroke-linejoin="round" d="M 1471,14583 L 1606,14547 1741,14505 1876,14457 2011,14402 2146,14339 2281,14271 2416,14190 2552,14098 2687,13993 2822,13872 2957,13736 3092,13581 3227,13406 3362,13204 3498,12973 3633,12711 3768,12412 3903,12071 4038,11682 4173,11242 4308,10736 4444,10161 4579,9505 4714,8758 4849,7906 4984,6934 5119,5827 5254,4565 5390,3125 5504,1733"/>
 <path fill="none" stroke="rgb(0,123,180)" stroke-width="80" stroke-linejoin="round" d="M 1471,14583 L 1606,14544 1741,14499 1876,14447 2011,14387 2146,14318 2281,14240 2416,14148 2552,14043 2687,13922 2822,13783 2957,13626 3092,13442 3227,13232 3362,12989 3498,12711 3633,12391 3768,12023 3903,11598 4038,11113 4173,10552 4308,9909 4444,9170 4579,8317 4714,7337 4849,6212 4984,4917 5119,3427 5253,1733"/>
 <text class="SVGTextShape"><tspan class="TextParagraph"><tspan class="TextPosition" x="1378" y="15414"><tspan font-family="Liberation Sans, sans-serif" font-size="353px" font-weight="400" fill="rgb(255,255,255)" stroke="none" style="white-space: pre">0</tspan></tspan></tspan></text>
 <text class="SVGTextShape"><tspan class="TextParagraph"><tspan class="TextPosition" x="2637" y="15414"><tspan font-family="Liberation Sans, sans-serif" font-size="353px" font-weight="400" fill="rgb(255,255,255)" stroke="none" style="white-space: pre">10</tspan></tspan></tspan></text>
 <text class="SVGTextShape"><tspan class="TextParagraph"><tspan class="TextPosition" x="3988" y="15414"><tspan font-family="Liberation Sans, sans-serif" font-size="353px" font-weight="400" fill="rgb(255,255,255)" stroke="none" style="white-space: pre">20</tspan></tspan></tspan></text>
 <text class="SVGTextShape"><tspan class="TextParagraph"><tspan class="TextPosition" x="5340" y="15414"><tspan font-family="Liberation Sans, sans-serif" font-size="353px" font-weight="400" fill="rgb(255,255,255)" stroke="none" style="white-space: pre">30</tspan></tspan></tspan></text>
 <text class="SVGTextShape"><tspan class="TextParagraph"><tspan class="TextPosition" x="6691" y="15414"><tspan font-family="Liberation Sans, sans-serif" font-size="353px" font-weight="400" fill="rgb(255,255,255)" stroke="none" style="white-space: pre">40</tspan></tspan></tspan></text>
 <text class="SVGTextShape"><tspan class="TextParagraph"><tspan class="TextPosition" x="8043" y="15414"><tspan font-family="Liberation Sans, sans-serif" font-size="353px" font-weight="400" fill="rgb(255,255,255)" stroke="none" style="white-space: pre">50</tspan></tspan></tspan></text>
 <text class="SVGTextShape"><tspan class="TextParagraph"><tspan class="TextPosition" x="9394" y="15414"><tspan font-family="Liberation Sans, sans-serif" font-size="353px" font-weight="400" fill="rgb(255,255,255)" stroke="none" style="white-space: pre">60</tspan></tspan></tspan></text>
 <text class="SVGTextShape"><tspan class="TextParagraph"><tspan class="TextPosition" x="10745" y="15414"><tspan font-family="Liberation Sans, sans-serif" font-size="353px" font-weight="400" fill="rgb(255,255,255)" stroke="none" style="white-space: pre">70</tspan></tspan></tspan></text>
 <text class="SVGTextShape"><tspan class="TextParagraph"><tspan class="TextPosition" x="12097" y="15414"><tspan font-family="Liberation Sans, sans-serif" font-size="353px" font-weight="400" fill="rgb(255,255,255)" stroke="none" style="white-space: pre">80</tspan></tspan></tspan></text>
 <text class="SVGTextShape"><tspan class="TextParagraph"><tspan class="TextPosition" x="13447" y="15414"><tspan font-family="Liberation Sans, sans-serif" font-size="353px" font-weight="400" fill="rgb(255,255,255)" stroke="none" style="white-space: pre">90</tspan></tspan></tspan></text>
 <text class="SVGTextShape"><tspan class="TextParagraph"><tspan class="TextPosition" x="14706" y="15414"><tspan font-family="Liberation Sans, sans-serif" font-size="353px" font-weight="400" fill="rgb(255,255,255)" stroke="none" style="white-space: pre">100</tspan></tspan></tspan></text>
 <text class="SVGTextShape"><tspan class="TextParagraph"><tspan class="TextPosition" x="16057" y="15414"><tspan font-family="Liberation Sans, sans-serif" font-size="353px" font-weight="400" fill="rgb(255,255,255)" stroke="none" style="white-space: pre">110</tspan></tspan></tspan></text>
 <text class="SVGTextShape"><tspan class="TextParagraph"><tspan class="TextPosition" x="17408" y="15414"><tspan font-family="Liberation Sans, sans-serif" font-size="353px" font-weight="400" fill="rgb(255,255,255)" stroke="none" style="white-space: pre">120</tspan></tspan></tspan></text>
 <text class="SVGTextShape"><tspan class="TextParagraph"><tspan class="TextPosition" x="18760" y="15414"><tspan font-family="Liberation Sans, sans-serif" font-size="353px" font-weight="400" fill="rgb(255,255,255)" stroke="none" style="white-space: pre">130</tspan></tspan></tspan></text>
 <text class="SVGTextShape"><tspan class="TextParagraph"><tspan class="TextPosition" x="20111" y="15414"><tspan font-family="Liberation Sans, sans-serif" font-size="353px" font-weight="400" fill="rgb(255,255,255)" stroke="none" style="white-space: pre">140</tspan></tspan></tspan></text>
 <text class="SVGTextShape"><tspan class="TextParagraph"><tspan class="TextPosition" x="21463" y="15414"><tspan font-family="Liberation Sans, sans-serif" font-size="353px" font-weight="400" fill="rgb(255,255,255)" stroke="none" style="white-space: pre">150</tspan></tspan></tspan></text>
 <text class="SVGTextShape"><tspan class="TextParagraph"><tspan class="TextPosition" x="877" y="14966"><tspan font-family="Liberation Sans, sans-serif" font-size="353px" font-weight="400" fill="rgb(255,255,255)" stroke="none" style="white-space: pre">0k</tspan></tspan></tspan></text>
 <text class="SVGTextShape"><tspan class="TextParagraph"><tspan class="TextPosition" x="692" y="13654"><tspan font-family="Liberation Sans, sans-serif" font-size="353px" font-weight="400" fill="rgb(255,255,255)" stroke="none" style="white-space: pre">50k</tspan></tspan></tspan></text>
 <text class="SVGTextShape"><tspan class="TextParagraph"><tspan class="TextPosition" x="480" y="12343"><tspan font-family="Liberation Sans, sans-serif" font-size="353px" font-weight="400" fill="rgb(255,255,255)" stroke="none" style="white-space: pre">100k</tspan></tspan></tspan></text>
 <text class="SVGTextShape"><tspan class="TextParagraph"><tspan class="TextPosition" x="480" y="11031"><tspan font-family="Liberation Sans, sans-serif" font-size="353px" font-weight="400" fill="rgb(255,255,255)" stroke="none" style="white-space: pre">150k</tspan></tspan></tspan></text>
 <text class="SVGTextShape"><tspan class="TextParagraph"><tspan class="TextPosition" x="480" y="9720"><tspan font-family="Liberation Sans, sans-serif" font-size="353px" font-weight="400" fill="rgb(255,255,255)" stroke="none" style="white-space: pre">200k</tspan></tspan></tspan></text>
 <text class="SVGTextShape"><tspan class="TextParagraph"><tspan class="TextPosition" x="480" y="8409"><tspan font-family="Liberation Sans, sans-serif" font-size="353px" font-weight="400" fill="rgb(255,255,255)" stroke="none" style="white-space: pre">250k</tspan></tspan></tspan></text>
 <text class="SVGTextShape"><tspan class="TextParagraph"><tspan class="TextPosition" x="480" y="7098"><tspan font-family="Liberation Sans, sans-serif" font-size="353px" font-weight="400" fill="rgb(255,255,255)" stroke="none" style="white-space: pre">300k</tspan></tspan></tspan></text>
 <text class="SVGTextShape"><tspan class="TextParagraph"><tspan class="TextPosition" x="480" y="5787"><tspan font-family="Liberation Sans, sans-serif" font-size="353px" font-weight="400" fill="rgb(255,255,255)" stroke="none" style="white-space: pre">350k</tspan></tspan></tspan></text>
 <text class="SVGTextShape"><tspan class="TextParagraph"><tspan class="TextPosition" x="480" y="4475"><tspan font-family="Liberation Sans, sans-serif" font-size="353px" font-weight="400" fill="rgb(255,255,255)" stroke="none" style="white-space: pre">400k</tspan></tspan></tspan></text>
 <text class="SVGTextShape"><tspan class="TextParagraph"><tspan class="TextPosition" x="480" y="3164"><tspan font-family="Liberation Sans, sans-serif" font-size="353px" font-weight="400" fill="rgb(255,255,255)" stroke="none" style="white-space: pre">450k</tspan></tspan></tspan></text>
 <text class="SVGTextShape"><tspan class="TextParagraph"><tspan class="TextPosition" x="480" y="1853"><tspan font-family="Liberation Sans, sans-serif" font-size="353px" font-weight="400" fill="rgb(255,255,255)" stroke="none" style="white-space: pre">500k</tspan></tspan></tspan></text>
 <text class="SVGTextShape"><tspan class="TextParagraph"><tspan class="TextPosition" x="11221" y="974"><tspan font-family="Liberation Sans, sans-serif" font-size="459px" font-weight="400" fill="rgb(255,255,255)" stroke="none" style="white-space: pre">Hexagonal</tspan></tspan></tspan></text>
 <path fill="none" stroke="rgb(0,123,180)" stroke-width="80" stroke-linejoin="round" d="M 22629,6404 L 23429,6404"/>
 <path fill="none" stroke="rgb(38,69,197)" stroke-width="80" stroke-linejoin="round" d="M 22629,6902 L 23429,6902"/>
 <path fill="none" stroke="rgb(156,109,201)" stroke-width="80" stroke-linejoin="round" d="M 22629,7400 L 23429,7400"/>
 <path fill="none" stroke="rgb(213,91,179)" stroke-width="80" stroke-linejoin="round" d="M 22629,7898 L 23429,7898"/>
 <path fill="none" stroke="rgb(253,75,138)" stroke-width="80" stroke-linejoin="round" d="M 22629,8395 L 23429,8395"/>
 <path fill="none" stroke="rgb(255,85,84)" stroke-width="80" stroke-linejoin="round" d="M 22629,8893 L 23429,8893"/>
 <path fill="none" stroke="rgb(255,118,0)" stroke-width="80" stroke-linejoin="round" d="M 22629,9391 L 23429,9391"/>
 <text class="SVGTextShape"><tspan class="TextParagraph"><tspan class="TextPosition" x="23529" y="6524"><tspan font-family="Liberation Sans, sans-serif" font-size="353px" font-weight="400" fill="rgb(255,255,255)" stroke="none" style="white-space: pre">2</tspan></tspan></tspan></text>
 <text class="SVGTextShape"><tspan class="TextParagraph"><tspan class="TextPosition" x="23529" y="7022"><tspan font-family="Liberation Sans, sans-serif" font-size="353px" font-weight="400" fill="rgb(255,255,255)" stroke="none" style="white-space: pre">1, 3</tspan></tspan></tspan></text>
 <text class="SVGTextShape"><tspan class="TextParagraph"><tspan class="TextPosition" x="23529" y="7520"><tspan font-family="Liberation Sans, sans-serif" font-size="353px" font-weight="400" fill="rgb(255,255,255)" stroke="none" style="white-space: pre">4</tspan></tspan></tspan></text>
 <text class="SVGTextShape"><tspan class="TextParagraph"><tspan class="TextPosition" x="23529" y="8017"><tspan font-family="Liberation Sans, sans-serif" font-size="353px" font-weight="400" fill="rgb(255,255,255)" stroke="none" style="white-space: pre">5</tspan></tspan></tspan></text>
 <text class="SVGTextShape"><tspan class="TextParagraph"><tspan class="TextPosition" x="23529" y="8515"><tspan font-family="Liberation Sans, sans-serif" font-size="353px" font-weight="400" fill="rgb(255,255,255)" stroke="none" style="white-space: pre">6</tspan></tspan></tspan></text>
 <text class="SVGTextShape"><tspan class="TextParagraph"><tspan class="TextPosition" x="23529" y="9013"><tspan font-family="Liberation Sans, sans-serif" font-size="353px" font-weight="400" fill="rgb(255,255,255)" stroke="none" style="white-space: pre">ros 0</tspan></tspan></tspan></text>
 <text class="SVGTextShape"><tspan class="TextParagraph"><tspan class="TextPosition" x="23529" y="9511"><tspan font-family="Liberation Sans, sans-serif" font-size="353px" font-weight="400" fill="rgb(255,255,255)" stroke="none" style="white-space: pre">ros 1</tspan></tspan></tspan></text>
</svg>