<?xml version="1.0" encoding="UTF-8"?>
<!DOCTYPE svg PUBLIC "-//W3C//DTD SVG 1.1//EN" "http://www.w3.org/Graphics/SVG/1.1/DTD/svg11.dtd">
<svg width="246mm" height="158mm" viewBox="0 0 24600 15800" version="1.1" xmlns="http://www.w3.org/2000/svg" xmlns:xlink="http://www.w3.org/1999/xlink" stroke-width="28.222" stroke-linejoin="round" xml:space="preserve">
 <path fill="rgb(32,42,78)" stroke="none" d="M 12293,15810 L -13,15810 -13,-13 24598,-13 24598,15810 12293,15810 Z"/>
 <path fill="none" stroke="rgb(179,179,179)" stroke-linejoin="round" d="M 11606,14847 L 1471,14847 1471,1734 21741,1734 21741,14847 11606,14847 Z"/>
 <path fill="none" stroke="rgb(179,179,179)" stroke-linejoin="round" d="M 1471,1733 L 1471,14846"/>
 <path fill="none" stroke="rgb(179,179,179)" stroke-linejoin="round" d="M 2822,1733 L 2822,14846"/>
 <path fill="none" stroke="rgb(179,179,179)" stroke-linejoin="round" d="M 4173,1733 L 4173,14846"/>
 <path fill="none" stroke="rgb(179,179,179)" stroke-linejoin="round" d="M 5525,1733 L 5525,14846"/>
 <path fill="none" stroke="rgb(179,179,179)" stroke-linejoin="round" d="M 6876,1733 L 6876,14846"/>
 <path fill="none" stroke="rgb(179,179,179)" stroke-linejoin="round" d="M 8228,1733 L 8228,14846"/>
 <path fill="none" stroke="rgb(179,179,179)" stroke-linejoin="round" d="M 9579,1733 L 9579,14846"/>
 <path fill="none" stroke="rgb(179,179,179)" stroke-linejoin="round" d="M 10930,1733 L 10930,14846"/>
 <path fill="none" stroke="rgb(179,179,179)" stroke-linejoin="round" d="M 12282,1733 L 12282,14846"/>
 <path fill="none" stroke="rgb(179,179,179)" stroke-linejoin="round" d="M 13632,1733 L 13632,14846"/>
 <path fill="none" stroke="rgb(179,179,179)" stroke-linejoin="round" d="M 14984,1733 L 14984,14846"/>
 <path fill="none" stroke="rgb(179,179,179)" stroke-linejoin="round" d="M 16335,1733 L 16335,14846"/>
 <path fill="none" stroke="rgb(179,179,179)" stroke-linejoin="round" d="M 17686,1733 L 17686,14846"/>
 <path fill="none" stroke="rgb(179,179,179)" stroke-linejoin="round" d="M 19038,1733 L 19038,14846"/>
 <path fill="none" stroke="rgb(179,179,179)" stroke-linejoin="round" d="M 20389,1733 L 20389,14846"/>
 <path fill="none" stroke="rgb(179,179,179)" stroke-linejoin="round" d="M 21741,1733 L 21741,14846"/>
 <path fill="none" stroke="rgb(179,179,179)" stroke-linejoin="round" d="M 21741,14846 L 1471,14846"/>
 <path fill="none" stroke="rgb(179,179,179)" stroke-linejoin="round" d="M 21741,13534 L 1471,13534"/>
 <path fill="none" stroke="rgb(179,179,179)" stroke-linejoin="round" d="M 21741,12223 L 1471,12223"/>
 <path fill="none" stroke="rgb(179,179,179)" stroke-linejoin="round" d="M 21741,10911 L 1471,10911"/>
 <path fill="none" stroke="rgb(179,179,179)" stroke-linejoin="round" d="M 21741,9600 L 1471,9600"/>
 <path fill="none" stroke="rgb(179,179,179)" stroke-linejoin="round" d="M 21741,8289 L 1471,8289"/>
 <path fill="none" stroke="rgb(179,179,179)" stroke-linejoin="round" d="M 21741,6978 L 1471,6978"/>
 <path fill="none" stroke="rgb(179,179,179)" stroke-linejoin="round" d="M 21741,5667 L 1471,5667"/>
 <path fill="none" stroke="rgb(179,179,179)" stroke-linejoin="round" d="M 21741,4355 L 1471,4355"/>
 <path fill="none" stroke="rgb(179,179,179)" stroke-linejoin="round" d="M 21741,3044 L 1471,3044"/>
 <path fill="none" stroke="rgb(179,179,179)" stroke-linejoin="round" d="M 21741,1733 L 1471,1733"/>
 <path fill="none" stroke="rgb(179,179,179)" stroke-linejoin="round" d="M 1471,14996 L 1471,14846"/>
 <path fill="none" stroke="rgb(179,179,179)" stroke-linejoin="round" d="M 1471,14996 L 1471,14846"/>
 <path fill="none" stroke="rgb(179,179,179)" stroke-linejoin="round" d="M 2822,14996 L 2822,14846"/>
 <path fill="none" stroke="rgb(179,179,179)" stroke-linejoin="round" d="M 2822,14996 L 2822,14846"/>
 <path fill="none" stroke="rgb(179,179,179)" stroke-linejoin="round" d="M 4173,14996 L 4173,14846"/>
 <path fill="none" stroke="rgb(179,179,179)" stroke-linejoin="round" d="M 4173,14996 L 4173,14846"/>
 <path fill="none" stroke="rgb(179,179,179)" stroke-linejoin="round" d="M 5525,14996 L 5525,14846"/>
 <path fill="none" stroke="rgb(179,179,179)" stroke-linejoin="round" d="M 5525,14996 L 5525,14846"/>
 <path fill="none" stroke="rgb(179,179,179)" stroke-linejoin="round" d="M 6876,14996 L 6876,14846"/>
 <path fill="none" stroke="rgb(179,179,179)" stroke-linejoin="round" d="M 6876,14996 L 6876,14846"/>
 <path fill="none" stroke="rgb(179,179,179)" stroke-linejoin="round" d="M 8228,14996 L 8228,14846"/>
 <path fill="none" stroke="rgb(179,179,179)" stroke-linejoin="round" d="M 8228,14996 L 8228,14846"/>
 <path fill="none" stroke="rgb(179,179,179)" stroke-linejoin="round" d="M 9579,14996 L 9579,14846"/>
 <path fill="none" stroke="rgb(179,179,179)" stroke-linejoin="round" d="M 9579,14996 L 9579,14846"/>
 <path fill="none" stroke="rgb(179,179,179)" stroke-linejoin="round" d="M 10930,14996 L 10930,14846"/>
 <path fill="none" stroke="rgb(179,179,179)" stroke-linejoin="round" d="M 10930,14996 L 10930,14846"/>
 <path fill="none" stroke="rgb(179,179,179)" stroke-linejoin="round" d="M 12282,14996 L 12282,14846"/>
 <path fill="none" stroke="rgb(179,179,179)" stroke-linejoin="round" d="M 12282,14996 L 12282,14846"/>
 <path fill="none" stroke="rgb(179,179,179)" stroke-linejoin="round" d="M 13632,14996 L 13632,14846"/>
 <path fill="none" stroke="rgb(179,179,179)" stroke-linejoin="round" d="M 13632,14996 L 13632,14846"/>
 <path fill="none" stroke="rgb(179,179,179)" stroke-linejoin="round" d="M 14984,14996 L 14984,14846"/>
 <path fill="none" stroke="rgb(179,179,179)" stroke-linejoin="round" d="M 14984,14996 L 14984,14846"/>
 <path fill="none" stroke="rgb(179,179,179)" stroke-linejoin="round" d="M 16335,14996 L 16335,14846"/>
 <path fill="none" stroke="rgb(179,179,179)" stroke-linejoin="round" d="M 16335,14996 L 16335,14846"/>
 <path fill="none" stroke="rgb(179,179,179)" stroke-linejoin="round" d="M 17686,14996 L 17686,14846"/>
 <path fill="none" stroke="rgb(179,179,179)" stroke-linejoin="round" d="M 17686,14996 L 17686,14846"/>
 <path fill="none" stroke="rgb(179,179,179)" stroke-linejoin="round" d="M 19038,14996 L 19038,14846"/>
 <path fill="none" stroke="rgb(179,179,179)" stroke-linejoin="round" d="M 19038,14996 L 19038,14846"/>
 <path fill="none" stroke="rgb(179,179,179)" stroke-linejoin="round" d="M 20389,14996 L 20389,14846"/>
 <path fill="none" stroke="rgb(179,179,179)" stroke-linejoin="round" d="M 20389,14996 L 20389,14846"/>
 <path fill="none" stroke="rgb(179,179,179)" stroke-linejoin="round" d="M 21741,14996 L 21741,14846"/>
 <path fill="none" stroke="rgb(179,179,179)" stroke-linejoin="round" d="M 21741,14996 L 21741,14846"/>
 <path fill="none" stroke="rgb(179,179,179)" stroke-linejoin="round" d="M 1471,14846 L 21741,14846"/>
 <path fill="none" stroke="rgb(179,179,179)" stroke-linejoin="round" d="M 1321,14846 L 1471,14846"/>
 <path fill="none" stroke="rgb(179,179,179)" stroke-linejoin="round" d="M 1321,14846 L 1471,14846"/>
 <path fill="none" stroke="rgb(179,179,179)" stroke-linejoin="round" d="M 1321,13534 L 1471,13534"/>
 <path fill="none" stroke="rgb(179,179,179)" stroke-linejoin="round" d="M 1321,13534 L 1471,13534"/>
 <path fill="none" stroke="rgb(179,179,179)" stroke-linejoin="round" d="M 1321,12223 L 1471,12223"/>
 <path fill="none" stroke="rgb(179,179,179)" stroke-linejoin="round" d="M 1321,12223 L 1471,12223"/>
 <path fill="none" stroke="rgb(179,179,179)" stroke-linejoin="round" d="M 1321,10911 L 1471,10911"/>
 <path fill="none" stroke="rgb(179,179,179)" stroke-linejoin="round" d="M 1321,10911 L 1471,10911"/>
 <path fill="none" stroke="rgb(179,179,179)" stroke-linejoin="round" d="M 1321,9600 L 1471,9600"/>
 <path fill="none" stroke="rgb(179,179,179)" stroke-linejoin="round" d="M 1321,9600 L 1471,9600"/>
 <path fill="none" stroke="rgb(179,179,179)" stroke-linejoin="round" d="M 1321,8289 L 1471,8289"/>
 <path fill="none" stroke="rgb(179,179,179)" stroke-linejoin="round" d="M 1321,8289 L 1471,8289"/>
 <path fill="none" stroke="rgb(179,179,179)" stroke-linejoin="round" d="M 1321,6978 L 1471,6978"/>
 <path fill="none" stroke="rgb(179,179,179)" stroke-linejoin="round" d="M 1321,6978 L 1471,6978"/>
 <path fill="none" stroke="rgb(179,179,179)" stroke-linejoin="round" d="M 1321,5667 L 1471,5667"/>
 <path fill="none" stroke="rgb(179,179,179)" stroke-linejoin="round" d="M 1321,5667 L 1471,5667"/>
 <path fill="none" stroke="rgb(179,179,179)" stroke-linejoin="round" d="M 1321,4355 L 1471,4355"/>
 <path fill="none" stroke="rgb(179,179,179)" stroke-linejoin="round" d="M 1321,4355 L 1471,4355"/>
 <path fill="none" stroke="rgb(179,179,179)" stroke-linejoin="round" d="M 1321,3044 L 1471,3044"/>
 <path fill="none" stroke="rgb(179,179,179)" stroke-linejoin="round" d="M 1321,3044 L 1471,3044"/>
 <path fill="none" stroke="rgb(179,179,179)" stroke-linejoin="round" d="M 1321,1733 L 1471,1733"/>
 <path fill="none" stroke="rgb(179,179,179)" stroke-linejoin="round" d="M 1321,1733 L 1471,1733"/>
 <path fill="none" stroke="rgb(179,179,179)" stroke-linejoin="round" d="M 1471,14846 L 1471,1733"/>
 <path fill="none" stroke="rgb(255,118,0)" stroke-width="80" stroke-linejoin="round" d="M 1471,14806 L 1606,14804 1741,14804 1876,14801 2011,14798 2146,14798 2281,14796 2416,14793 2552,14790 2687,14790 2822,14788 2957,14785 3092,14783 3227,14780 3362,14777 3498,14775 3633,14772 3768,14769 3903,14767 4038,14762 4173,14759 4308,14756 4444,14751 4579,14748 4714,14746 4849,14741 4984,14735 5119,14733 5254,14727 5390,14722 5525,14717 5660,14712 5795,14706 5930,14701 6065,14696 6200,14691 6336,14683 6471,14678 6606,14670 6741,14665 6876,14657 7011,14649 7146,14641 7282,14633 7417,14625 7552,14615 7687,14607 7822,14596 7957,14586 8092,14575 8228,14565 8363,14554 8498,14544 8633,14531 8768,14518 8903,14505 9038,14491 9173,14478 9309,14463 9444,14447 9579,14431 9714,14415 9849,14397 9984,14381 10119,14360 10255,14342 10390,14321 10525,14300 10660,14279 10795,14255 10930,14232 11065,14208 11201,14182 11336,14156 11471,14129 11606,14101 11741,14069 11876,14040 12011,14006 12147,13975 12282,13938 12416,13901 12551,13865 12686,13825 12821,13786 12956,13741 13092,13699 13227,13652 13362,13605 13497,13555 13632,13503 13767,13450 13902,13392 14038,13335 14173,13274 14308,13211 14443,13146 14578,13080 14713,13010 14848,12936 14984,12857 15119,12779 15254,12697 15389,12611 15524,12522 15659,12427 15794,12330 15929,12231 16065,12126 16200,12018 16335,11905 16470,11787 16605,11664 16740,11538 16875,11404 17011,11268 17146,11124 17281,10974 17416,10820 17551,10660 17686,10492 17821,10319 17957,10138 18092,9949 18227,9752 18362,9547 18497,9338 18632,9117 18767,8886 18903,8648 19038,8401 19173,8144 19308,7875 19443,7597 19578,7309 19713,7007 19849,6692 19984,6367 20119,6026 20254,5675 20389,5307 20524,4924 20659,4528 20795,4117 20930,3686 21065,3241 21200,2776 21335,2294 21470,1790 21485,1733"/>
 <path fill="none" stroke="rgb(255,85,84)" stroke-width="80" stroke-linejoin="round" d="M 1471,14806 L 1606,14804 1741,14801 1876,14801 2011,14798 2146,14796 2281,14793 2416,14790 2552,14788 2687,14785 2822,14783 2957,14777 3092,14775 3227,14772 3362,14767 3498,14764 3633,14759 3768,14756 3903,14751 4038,14746 4173,14741 4308,14735 4444,14730 4579,14725 4714,14720 4849,14712 4984,14706 5119,14699 5254,14691 5390,14683 5525,14675 5660,14667 5795,14659 5930,14649 6065,14638 6200,14628 6336,14617 6471,14607 6606,14594 6741,14581 6876,14567 7011,14554 7146,14541 7282,14526 7417,14510 7552,14491 7687,14473 7822,14455 7957,14436 8092,14415 8228,14394 8363,14371 8498,14347 8633,14324 8768,14297 8903,14268 9038,14240 9173,14211 9309,14179 9444,14145 9579,14111 9714,14074 9849,14035 9984,13996 10119,13951 10255,13907 10390,13862 10525,13812 10660,13760 10795,13705 10930,13650 11065,13589 11201,13526 11336,13461 11471,13390 11606,13319 11741,13240 11876,13162 12011,13078 12147,12989 12282,12897 12416,12797 12551,12695 12686,12587 12821,12474 12956,12356 13092,12233 13227,12102 13362,11966 13497,11821 13632,11669 13767,11509 13902,11344 14038,11168 14173,10985 14308,10791 14443,10589 14578,10376 14713,10153 14848,9917 14984,9671 15119,9414 15254,9141 15389,8858 15524,8556 15659,8244 15794,7913 15929,7566 16065,7204 16200,6821 16335,6419 16470,5997 16605,5557 16740,5092 16875,4604 17011,4090 17146,3553 17281,2989 17416,2396 17551,1774 17560,1733"/>
 <path fill="none" stroke="rgb(253,75,138)" stroke-width="80" stroke-linejoin="round" d="M 1471,14636 L 1606,14604 1741,14567 1876,14526 2011,14478 2146,14423 2281,14360 2416,14287 2552,14203 2687,14108 2822,13996 2957,13870 3092,13723 3227,13555 3362,13361 3498,13138 3633,12881 3768,12587 3903,12249 4038,11858 4173,11412 4308,10896 4444,10303 4579,9624 4714,8839 4849,7937 4984,6902 5119,5711 5254,4342 5390,2766 5467,1733"/>
 <path fill="none" stroke="rgb(213,91,179)" stroke-width="80" stroke-linejoin="round" d="M 1471,14636 L 1606,14602 1741,14562 1876,14518 2011,14465 2146,14405 2281,14334 2416,14253 2552,14158 2687,14048 2822,13920 2957,13773 3092,13600 3227,13400 3362,13170 3498,12902 3633,12590 3768,12231 3903,11811 4038,11326 4173,10762 4308,10109 4444,9351 4579,8472 4714,7453 4849,6270 4984,4898 5119,3306 5234,1733"/>
 <path fill="none" stroke="rgb(156,109,201)" stroke-width="80" stroke-linejoin="round" d="M 1471,14583 L 1606,14541 1741,14491 1876,14436 2011,14371 2146,14295 2281,14206 2416,14103 2552,13985 2687,13849 2822,13689 2957,13503 3092,13288 3227,13038 3362,12750 3498,12414 3633,12026 3768,11575 3903,11053 4038,10444 4173,9742 4308,8926 4444,7976 4579,6878 4714,5604 4849,4127 4984,2412 5030,1733"/>
 <path fill="none" stroke="rgb(38,69,197)" stroke-width="80" stroke-linejoin="round" d="M 1471,14531 L 1606,14478 1741,14415 1876,14342 2011,14255 2146,14156 2281,14038 2416,13901 2552,13741 2687,13552 2822,13332 2957,13075 3092,12773 3227,12422 3362,12010 3498,11528 3633,10964 3768,10305 3903,9534 4038,8629 4173,7573 4308,6338 4444,4890 4579,3199 4679,1733"/>
 <path fill="none" stroke="rgb(0,123,180)" stroke-width="80" stroke-linejoin="round" d="M 1471,14452 L 1606,14381 1741,14297 1876,14200 2011,14082 2146,13946 2281,13783 2416,13592 2552,13366 2687,13101 2822,12787 2957,12417 3092,11979 3227,11462 3362,10854 3498,10135 3633,9288 3768,8286 3903,7107 4038,5714 4173,4069 4308,2129 4332,1733"/>
 <text class="SVGTextShape"><tspan class="TextParagraph"><tspan class="TextPosition" x="1378" y="15414"><tspan font-family="Liberation Sans, sans-serif" font-size="353px" font-weight="400" fill="rgb(255,255,255)" stroke="none" style="white-space: pre">0</tspan></tspan></tspan></text>
 <text class="SVGTextShape"><tspan class="TextParagraph"><tspan class="TextPosition" x="2637" y="15414"><tspan font-family="Liberation Sans, sans-serif" font-size="353px" font-weight="400" fill="rgb(255,255,255)" stroke="none" style="white-space: pre">10</tspan></tspan></tspan></text>
 <text class="SVGTextShape"><tspan class="TextParagraph"><tspan class="TextPosition" x="3988" y="15414"><tspan font-family="Liberation Sans, sans-serif" font-size="353px" font-weight="400" fill="rgb(255,255,255)" stroke="none" style="white-space: pre">20</tspan></tspan></tspan></text>
 <text class="SVGTextShape"><tspan class="TextParagraph"><tspan class="TextPosition" x="5340" y="15414"><tspan font-family="Liberation Sans, sans-serif" font-size="353px" font-weight="400" fill="rgb(255,255,255)" stroke="none" style="white-space: pre">30</tspan></tspan></tspan></text>
 <text class="SVGTextShape"><tspan class="TextParagraph"><tspan class="TextPosition" x="6691" y="15414"><tspan font-family="Liberation Sans, sans-serif" font-size="353px" font-weight="400" fill="rgb(255,255,255)" stroke="none" style="white-space: pre">40</tspan></tspan></tspan></text>
 <text class="SVGTextShape"><tspan class="TextParagraph"><tspan class="TextPosition" x="8043" y="15414"><tspan font-family="Liberation Sans, sans-serif" font-size="353px" font-weight="400" fill="rgb(255,255,255)" stroke="none" style="white-space: pre">50</tspan></tspan></tspan></text>
 <text class="SVGTextShape"><tspan class="TextParagraph"><tspan class="TextPosition" x="9394" y="15414"><tspan font-family="Liberation Sans, sans-serif" font-size="353px" font-weight="400" fill="rgb(255,255,255)" stroke="none" style="white-space: pre">60</tspan></tspan></tspan></text>
 <text class="SVGTextShape"><tspan class="TextParagraph"><tspan class="TextPosition" x="10745" y="15414"><tspan font-family="Liberation Sans, sans-serif" font-size="353px" font-weight="400" fill="rgb(255,255,255)" stroke="none" style="white-space: pre">70</tspan></tspan></tspan></text>
 <text class="SVGTextShape"><tspan class="TextParagraph"><tspan class="TextPosition" x="12097" y="15414"><tspan font-family="Liberation Sans, sans-serif" font-size="353px" font-weight="400" fill="rgb(255,255,255)" stroke="none" style="white-space: pre">80</tspan></tspan></tspan></text>
 <text class="SVGTextShape"><tspan class="TextParagraph"><tspan class="TextPosition" x="13447" y="15414"><tspan font-family="Liberation Sans, sans-serif" font-size="353px" font-weight="400" fill="rgb(255,255,255)" stroke="none" style="white-space: pre">90</tspan></tspan></tspan></text>
 <text class="SVGTextShape"><tspan class="TextParagraph"><tspan class="TextPosition" x="14706" y="15414"><tspan font-family="Liberation Sans, sans-serif" font-size="353px" font-weight="400" fill="rgb(255,255,255)" stroke="none" style="white-space: pre">100</tspan></tspan></tspan></text>
 <text class="SVGTextShape"><tspan class="TextParagraph"><tspan class="TextPosition" x="16057" y="15414"><tspan font-family="Liberation Sans, sans-serif" font-size="353px" font-weight="400" fill="rgb(255,255,255)" stroke="none" style="white-space: pre">110</tspan></tspan></tspan></text>
 <text class="SVGTextShape"><tspan class="TextParagraph"><tspan class="TextPosition" x="17408" y="15414"><tspan font-family="Liberation Sans, sans-serif" font-size="353px" font-weight="400" fill="rgb(255,255,255)" stroke="none" style="white-space: pre">120</tspan></tspan></tspan></text>
 <text class="SVGTextShape"><tspan class="TextParagraph"><tspan class="TextPosition" x="18760" y="15414"><tspan font-family="Liberation Sans, sans-serif" font-size="353px" font-weight="400" fill="rgb(255,255,255)" stroke="none" style="white-space: pre">130</tspan></tspan></tspan></text>
 <text class="SVGTextShape"><tspan class="TextParagraph"><tspan class="TextPosition" x="20111" y="15414"><tspan font-family="Liberation Sans, sans-serif" font-size="353px" font-weight="400" fill="rgb(255,255,255)" stroke="none" style="white-space: pre">140</tspan></tspan></tspan></text>
 <text class="SVGTextShape"><tspan class="TextParagraph"><tspan class="TextPosition" x="21463" y="15414"><tspan font-family="Liberation Sans, sans-serif" font-size="353px" font-weight="400" fill="rgb(255,255,255)" stroke="none" style="white-space: pre">150</tspan></tspan></tspan></text>
 <text class="SVGTextShape"><tspan class="TextParagraph"><tspan class="TextPosition" x="877" y="14966"><tspan font-family="Liberation Sans, sans-serif" font-size="353px" font-weight="400" fill="rgb(255,255,255)" stroke="none" style="white-space: pre">0k</tspan></tspan></tspan></text>
 <text class="SVGTextShape"><tspan class="TextParagraph"><tspan class="TextPosition" x="692" y="13654"><tspan font-family="Liberation Sans, sans-serif" font-size="353px" font-weight="400" fill="rgb(255,255,255)" stroke="none" style="white-space: pre">50k</tspan></tspan></tspan></text>
 <text class="SVGTextShape"><tspan class="TextParagraph"><tspan class="TextPosition" x="480" y="12343"><tspan font-family="Liberation Sans, sans-serif" font-size="353px" font-weight="400" fill="rgb(255,255,255)" stroke="none" style="white-space: pre">100k</tspan></tspan></tspan></text>
 <text class="SVGTextShape"><tspan class="TextParagraph"><tspan class="TextPosition" x="480" y="11031"><tspan font-family="Liberation Sans, sans-serif" font-size="353px" font-weight="400" fill="rgb(255,255,255)" stroke="none" style="white-space: pre">150k</tspan></tspan></tspan></text>
 <text class="SVGTextShape"><tspan class="TextParagraph"><tspan class="TextPosition" x="480" y="9720"><tspan font-family="Liberation Sans, sans-serif" font-size="353px" font-weight="400" fill="rgb(255,255,255)" stroke="none" style="white-space: pre">200k</tspan></tspan></tspan></text>
 <text class="SVGTextShape"><tspan class="TextParagraph"><tspan class="TextPosition" x="480" y="8409"><tspan font-family="Liberation Sans, sans-serif" font-size="353px" font-weight="400" fill="rgb(255,255,255)" stroke="none" style="white-space: pre">250k</tspan></tspan></tspan></text>
 <text class="SVGTextShape"><tspan class="TextParagraph"><tspan class="TextPosition" x="480" y="7098"><tspan font-family="Liberation Sans, sans-serif" font-size="353px" font-weight="400" fill="rgb(255,255,255)" stroke="none" style="white-space: pre">300k</tspan></tspan></tspan></text>
 <text class="SVGTextShape"><tspan class="TextParagraph"><tspan class="TextPosition" x="480" y="5787"><tspan font-family="Liberation Sans, sans-serif" font-size="353px" font-weight="400" fill="rgb(255,255,255)" stroke="none" style="white-space: pre">350k</tspan></tspan></tspan></text>
 <text class="SVGTextShape"><tspan class="TextParagraph"><tspan class="TextPosition" x="480" y="4475"><tspan font-family="Liberation Sans, sans-serif" font-size="353px" font-weight="400" fill="rgb(255,255,255)" stroke="none" style="white-space: pre">400k</tspan></tspan></tspan></text>
 <text class="SVGTextShape"><tspan class="TextParagraph"><tspan class="TextPosition" x="480" y="3164"><tspan font-family="Liberation Sans, sans-serif" font-size="353px" font-weight="400" fill="rgb(255,255,255)" stroke="none" style="white-space: pre">450k</tspan></tspan></tspan></text>
 <text class="SVGTextShape"><tspan class="TextParagraph"><tspan class="TextPosition" x="480" y="1853"><tspan font-family="Liberation Sans, sans-serif" font-size="353px" font-weight="400" fill="rgb(255,255,255)" stroke="none" style="white-space: pre">500k</tspan></tspan></tspan></text>
 <text class="SVGTextShape"><tspan class="TextParagraph"><tspan class="TextPosition" x="11816" y="974"><tspan font-family="Liberation Sans, sans-serif" font-size="459px" font-weight="400" fill="rgb(255,255,255)" stroke="none" style="white-space: pre">Hard</tspan></tspan></tspan></text>
 <path fill="none" stroke="rgb(0,123,180)" stroke-width="80" stroke-linejoin="round" d="M 22629,6404 L 23429,6404"/>
 <path fill="none" stroke="rgb(38,69,197)" stroke-width="80" stroke-linejoin="round" d="M 22629,6902 L 23429,6902"/>
 <path fill="none" stroke="rgb(156,109,201)" stroke-width="80" stroke-linejoin="round" d="M 22629,7400 L 23429,7400"/>
 <path fill="none" stroke="rgb(213,91,179)" stroke-width="80" stroke-linejoin="round" d="M 22629,7898 L 23429,7898"/>
 <path fill="none" stroke="rgb(253,75,138)" stroke-width="80" stroke-linejoin="round" d="M 22629,8395 L 23429,8395"/>
 <path fill="none" stroke="rgb(255,85,84)" stroke-width="80" stroke-linejoin="round" d="M 22629,8893 L 23429,8893"/>
 <path fill="none" stroke="rgb(255,118,0)" stroke-width="80" stroke-linejoin="round" d="M 22629,9391 L 23429,9391"/>
 <text class="SVGTextShape"><tspan class="TextParagraph"><tspan class="TextPosition" x="23529" y="6524"><tspan font-family="Liberation Sans, sans-serif" font-size="353px" font-weight="400" fill="rgb(255,255,255)" stroke="none" style="white-space: pre">1</tspan></tspan></tspan></text>
 <text class="SVGTextShape"><tspan class="TextParagraph"><tspan class="TextPosition" x="23529" y="7022"><tspan font-family="Liberation Sans, sans-serif" font-size="353px" font-weight="400" fill="rgb(255,255,255)" stroke="none" style="white-space: pre">2</tspan></tspan></tspan></text>
 <text class="SVGTextShape"><tspan class="TextParagraph"><tspan class="TextPosition" x="23529" y="7520"><tspan font-family="Liberation Sans, sans-serif" font-size="353px" font-weight="400" fill="rgb(255,255,255)" stroke="none" style="white-space: pre">3</tspan></tspan></tspan></text>
 <text class="SVGTextShape"><tspan class="TextParagraph"><tspan class="TextPosition" x="23529" y="8017"><tspan font-family="Liberation Sans, sans-serif" font-size="353px" font-weight="400" fill="rgb(255,255,255)" stroke="none" style="white-space: pre">4</tspan></tspan></tspan></text>
 <text class="SVGTextShape"><tspan class="TextParagraph"><tspan class="TextPosition" x="23529" y="8515"><tspan font-family="Liberation Sans, sans-serif" font-size="353px" font-weight="400" fill="rgb(255,255,255)" stroke="none" style="white-space: pre">5, 6</tspan></tspan></tspan></text>
 <text class="SVGTextShape"><tspan class="TextParagraph"><tspan class="TextPosition" x="23529" y="9013"><tspan font-family="Liberation Sans, sans-serif" font-size="353px" font-weight="400" fill="rgb(255,255,255)" stroke="none" style="white-space: pre">ros 0</tspan></tspan></tspan></text>
 <text class="SVGTextShape"><tspan class="TextParagraph"><tspan class="TextPosition" x="23529" y="9511"><tspan font-family="Liberation Sans, sans-serif" font-size="353px" font-weight="400" fill="rgb(255,255,255)" stroke="none" style="white-space: pre">ros 1</tspan></tspan></tspan></text>
</svg>